<?xml version="1.0" encoding="utf-8"?>
<!-- Generator: Adobe Illustrator 19.1.0, SVG Export Plug-In . SVG Version: 6.00 Build 0)  -->
<svg version="1.1" id="Layer_1" xmlns="http://www.w3.org/2000/svg" xmlns:xlink="http://www.w3.org/1999/xlink" x="0px" y="0px"
	 viewBox="0 0 283.5 283.5" style="enable-background:new 0 0 283.5 283.5;" xml:space="preserve">
<style type="text/css">
	.st0{stroke:#FFFFFF;stroke-width:2;stroke-miterlimit:10;}
</style>
<g>
	<path d="M83.5,104.4L66.4,87.4c-6.7,4.7-15.9,4-21.9-1.9c-6.7-6.7-6.7-17.5,0-24.2c3.2-3.2,7.4-4.9,11.7-5c0.1-4.4,1.8-8.6,5-11.7
		c6.7-6.7,17.5-6.7,24.2,0c5.9,5.9,6.6,15.2,1.9,21.9l17.3,17.3l-2.9,2.1c-6.2,4.4-11.7,9.8-16.2,15.9L83.5,104.4z M66.6,79.1
		l16.2,16.2c3.7-4.6,7.9-8.8,12.6-12.4L79.1,66.6l2.1-2.1c4.3-4.3,4.3-11.4,0-15.7c-4.3-4.3-11.4-4.3-15.7,0
		c-2.7,2.7-3.8,6.5-3,10.2l1,4.5l-4.5-1c-3.7-0.8-7.5,0.3-10.2,3c-4.3,4.3-4.3,11.4,0,15.7c4.3,4.3,11.4,4.3,15.7,0L66.6,79.1z"/>
	<path d="M210.1,243.9c-4.6,0-8.9-1.8-12.1-5c-5.9-5.9-6.6-15.2-1.9-21.9l-12-12v-7.2l1.1-0.9c5.1-4.1,9.7-8.9,13.4-14.3l2.1-2.9
		l16.3,16.3c6.7-4.7,15.9-4,21.9,1.9c6.7,6.7,6.7,17.5,0,24.2c-3.2,3.2-7.4,4.9-11.7,5c-0.1,4.4-1.8,8.6-5,11.7
		C219,242.2,214.7,243.9,210.1,243.9z M190.1,202.6l14.3,14.3l-2.1,2.1c-4.3,4.3-4.3,11.4,0,15.7c2.1,2.1,4.9,3.2,7.8,3.2
		s5.8-1.2,7.9-3.2c2.7-2.7,3.8-6.5,3-10.2l-1-4.5l4.5,1c3.7,0.8,7.5-0.3,10.2-3c4.3-4.3,4.3-11.4,0-15.7c-4.3-4.3-11.4-4.3-15.7,0
		l-2.1,2.1L201.5,189c-3.4,4.3-7.2,8.3-11.4,11.8V202.6z"/>
	<path d="M200,104.4l-2.1-2.8c-4.5-6.2-10-11.5-16.2-15.9l-2.9-2.1l17.3-17.3c-4.7-6.7-4-15.9,1.9-21.9c3.2-3.2,7.5-5,12.1-5
		c4.6,0,8.9,1.8,12.1,5c3.2,3.2,4.9,7.4,5,11.7c4.4,0.1,8.6,1.8,11.7,5c3.2,3.2,5,7.5,5,12.1c0,4.6-1.8,8.9-5,12.1
		c-5.9,5.9-15.2,6.6-21.9,1.9L200,104.4z M188,82.9c4.7,3.6,8.9,7.8,12.6,12.4l16.2-16.2l2.1,2.1c4.3,4.3,11.4,4.3,15.7,0
		c2.1-2.1,3.3-4.9,3.3-7.8c0-3-1.2-5.8-3.3-7.9c-2.7-2.7-6.5-3.8-10.2-3l-4.5,1l1-4.5c0.8-3.7-0.3-7.5-3-10.2
		c-2.1-2.1-4.9-3.2-7.8-3.2s-5.8,1.2-7.9,3.2c-4.3,4.3-4.3,11.4,0,15.7l2.1,2.1L188,82.9z"/>
	<path d="M73.4,243.9c-4.4,0-8.8-1.7-12.1-5c-3.2-3.2-4.9-7.4-5-11.7c-4.4-0.1-8.6-1.8-11.7-5c-6.7-6.7-6.7-17.5,0-24.2
		c5.9-5.9,15.2-6.6,21.9-1.9l16.3-16.3l2.1,2.9c3.8,5.4,8.3,10.2,13.4,14.3l1.1,0.9v7.2l-12,12c4.7,6.7,4,15.9-1.9,21.9
		C82.1,242.3,77.7,243.9,73.4,243.9z M63.5,220l-1,4.5c-0.8,3.7,0.3,7.5,3,10.2c4.3,4.3,11.4,4.3,15.7,0c4.3-4.3,4.3-11.4,0-15.7
		l-2.1-2.1l14.3-14.3v-1.8c-4.2-3.5-8-7.4-11.4-11.8l-15.4,15.4l-2.1-2.1c-4.3-4.3-11.4-4.3-15.7,0c-4.3,4.3-4.3,11.4,0,15.7
		c2.7,2.7,6.5,3.8,10.2,3L63.5,220z"/>
	<path d="M180.7,216.7h-77.9v-20.5c-17.1-12.5-27.2-32.4-27.2-53.5c0-36.5,29.7-66.2,66.2-66.2s66.2,29.7,66.2,66.2
		c0,21.1-10.2,41.1-27.2,53.5V216.7z M107.8,211.7h67.9v-18.1l1.1-0.7c16.4-11.5,26.2-30.2,26.2-50.2c0-33.7-27.5-61.2-61.2-61.2
		c-33.7,0-61.2,27.5-61.2,61.2c0,20,9.8,38.7,26.2,50.2l1.1,0.7V211.7z M149.4,194.8c-3.3,0-6.1-2.1-7.2-5c-1.1,2.9-3.9,5-7.2,5
		c-4.2,0-7.6-3.4-7.6-7.6c0-4.2,3.4-7.6,7.6-7.6c3.3,0,6.1,2.1,7.2,5c1.1-2.9,3.9-5,7.2-5c4.2,0,7.6,3.4,7.6,7.6
		C157,191.4,153.6,194.8,149.4,194.8z M149.4,184.5c-1.5,0-2.6,1.2-2.6,2.6c0,1.5,1.2,2.6,2.6,2.6c1.5,0,2.6-1.2,2.6-2.6
		C152,185.7,150.9,184.5,149.4,184.5z M135,184.5c-1.5,0-2.6,1.2-2.6,2.6c0,1.5,1.2,2.6,2.6,2.6c1.5,0,2.6-1.2,2.6-2.6
		C137.7,185.7,136.5,184.5,135,184.5z M165.4,169.4c-9.9,0-18-8.1-18-18c0-9.9,8.1-18,18-18c10,0,18,8.1,18,18
		C183.5,161.3,175.4,169.4,165.4,169.4z M165.4,138.3c-7.2,0-13,5.9-13,13c0,7.2,5.9,13,13,13s13-5.9,13-13
		C178.5,144.1,172.6,138.3,165.4,138.3z M118,169.4c-9.9,0-18-8.1-18-18c0-9.9,8.1-18,18-18c9.9,0,18,8.1,18,18
		C136.1,161.3,128,169.4,118,169.4z M118,138.3c-7.2,0-13,5.9-13,13c0,7.2,5.9,13,13,13c7.2,0,13-5.9,13-13
		C131.1,144.1,125.2,138.3,118,138.3z"/>
</g>
</svg>
