<?xml version="1.0" encoding="utf-8"?>
<!-- Generator: Adobe Illustrator 19.1.0, SVG Export Plug-In . SVG Version: 6.00 Build 0)  -->
<svg version="1.1" id="Layer_1" xmlns="http://www.w3.org/2000/svg" xmlns:xlink="http://www.w3.org/1999/xlink" x="0px" y="0px"
	 viewBox="0 0 283.5 283.5" style="enable-background:new 0 0 283.5 283.5;" xml:space="preserve">
<style type="text/css">
	.st0{fill:none;stroke:#060606;stroke-width:6;stroke-miterlimit:10;}
	.st1{fill:none;stroke:#000000;stroke-width:5;}
</style>
<g>
	<path d="M164.1,115.9l-11.8-11.8c-4.6,3.2-11,2.8-15.2-1.3c-4.6-4.6-4.6-12.1,0-16.8c2.2-2.2,5.1-3.4,8.1-3.5
		c0.1-3,1.3-5.9,3.5-8.1c4.6-4.6,12.1-4.6,16.8,0c4.1,4.1,4.6,10.5,1.3,15.2l12,12l-2,1.4c-4.3,3.1-8.1,6.8-11.2,11L164.1,115.9z
		 M152.5,98.3l11.2,11.2c2.6-3.2,5.5-6.1,8.7-8.6l-11.3-11.3l1.5-1.5c3-3,3-7.9,0-10.9c-3-3-7.9-3-10.9,0c-1.8,1.8-2.6,4.5-2.1,7.1
		l0.7,3.1l-3.1-0.7c-2.6-0.6-5.2,0.2-7.1,2.1c-3,3-3,7.9,0,10.9c3,3,7.9,3,10.9,0L152.5,98.3z"/>
	<path d="M252,212.6c-3.2,0-6.1-1.2-8.4-3.5c-4.1-4.1-4.6-10.6-1.3-15.2l-8.3-8.3v-5l0.8-0.6c3.6-2.9,6.7-6.2,9.3-9.9l1.4-2
		l11.3,11.3c4.6-3.2,11.1-2.8,15.2,1.3c4.6,4.6,4.6,12.1,0,16.8c-2.2,2.2-5.1,3.4-8.1,3.5c-0.1,3-1.3,5.9-3.5,8.1
		C258.1,211.4,255.1,212.6,252,212.6z M238.1,183.9l9.9,9.9l-1.5,1.5c-3,3-3,7.9,0,10.9c1.5,1.5,3.4,2.3,5.4,2.3s4-0.8,5.4-2.3
		c1.8-1.8,2.6-4.5,2.1-7.1l-0.7-3.1l3.1,0.7c2.6,0.5,5.2-0.2,7.1-2.1c3-3,3-7.9,0-10.9c-3-3-7.9-3-10.9,0l-1.5,1.5L246,174.5
		c-2.3,3-5,5.7-7.9,8.2V183.9z"/>
	<path d="M244.9,115.9l-1.4-2c-3.1-4.3-6.9-8-11.2-11l-2-1.4l12-12c-3.2-4.6-2.8-11.1,1.3-15.2c2.2-2.2,5.2-3.5,8.4-3.5
		c3.2,0,6.1,1.2,8.4,3.5c2.2,2.2,3.4,5.1,3.5,8.1c3,0.1,5.9,1.3,8.1,3.5c2.2,2.2,3.5,5.2,3.5,8.4c0,3.2-1.2,6.1-3.5,8.4
		c-4.1,4.1-10.5,4.6-15.2,1.3L244.9,115.9z M236.7,101c3.2,2.5,6.2,5.4,8.7,8.6l11.2-11.2l1.5,1.5c3,3,7.9,3,10.9,0
		c1.5-1.5,2.3-3.4,2.3-5.4c0-2.1-0.8-4-2.3-5.4c-1.8-1.8-4.5-2.6-7.1-2.1l-3.1,0.7l0.7-3.1c0.5-2.6-0.2-5.2-2.1-7.1
		c-1.5-1.5-3.4-2.3-5.4-2.3c-2.1,0-4,0.8-5.4,2.3c-3,3-3,7.9,0,10.9l1.5,1.5L236.7,101z"/>
	<path d="M157.1,212.6c-3,0-6.1-1.2-8.4-3.5c-2.2-2.2-3.4-5.1-3.5-8.1c-3-0.1-5.9-1.3-8.1-3.5c-4.6-4.6-4.6-12.1,0-16.8
		c4.1-4.1,10.6-4.6,15.2-1.3l11.3-11.3l1.4,2c2.6,3.7,5.8,7.1,9.3,9.9l0.8,0.6v5l-8.3,8.3c3.2,4.6,2.8,11-1.3,15.2
		C163.2,211.4,160.2,212.6,157.1,212.6z M150.3,196l-0.7,3.1c-0.6,2.6,0.2,5.2,2.1,7.1c3,3,7.9,3,10.9,0c3-3,3-7.9,0-10.9l-1.5-1.5
		l9.9-9.9v-1.3c-2.9-2.4-5.6-5.2-7.9-8.2l-10.7,10.7l-1.5-1.5c-3-3-7.9-3-10.9,0c-3,3-3,7.9,0,10.9c1.8,1.9,4.5,2.6,7.1,2.1
		L150.3,196z"/>
	<path d="M231.6,193.7h-54v-14.2c-11.8-8.6-18.9-22.4-18.9-37.1c0-25.3,20.6-45.9,45.9-45.9s45.9,20.6,45.9,45.9
		c0,14.7-7,28.5-18.9,37.1V193.7z M181,190.2h47.1v-12.6l0.7-0.5c11.4-7.9,18.2-21,18.2-34.8c0-23.4-19-42.4-42.4-42.4
		c-23.4,0-42.4,19-42.4,42.4c0,13.8,6.8,26.8,18.2,34.8l0.7,0.5V190.2z M209.9,178.5c-2.3,0-4.2-1.5-5-3.5c-0.7,2-2.7,3.5-5,3.5
		c-2.9,0-5.3-2.4-5.3-5.3c0-2.9,2.4-5.3,5.3-5.3c2.3,0,4.2,1.5,5,3.5c0.7-2,2.7-3.5,5-3.5c2.9,0,5.3,2.4,5.3,5.3
		C215.2,176.1,212.8,178.5,209.9,178.5z M209.9,171.4c-1,0-1.8,0.8-1.8,1.8c0,1,0.8,1.8,1.8,1.8c1,0,1.8-0.8,1.8-1.8
		C211.7,172.2,210.9,171.4,209.9,171.4z M199.9,171.4c-1,0-1.8,0.8-1.8,1.8c0,1,0.8,1.8,1.8,1.8c1,0,1.8-0.8,1.8-1.8
		C201.7,172.2,200.9,171.4,199.9,171.4z M221,160.9c-6.9,0-12.5-5.6-12.5-12.5c0-6.9,5.6-12.5,12.5-12.5c6.9,0,12.5,5.6,12.5,12.5
		C233.5,155.3,227.9,160.9,221,160.9z M221,139.3c-5,0-9,4.1-9,9c0,5,4.1,9,9,9s9-4.1,9-9C230,143.4,226,139.3,221,139.3z
		 M188.1,160.9c-6.9,0-12.5-5.6-12.5-12.5c0-6.9,5.6-12.5,12.5-12.5c6.9,0,12.5,5.6,12.5,12.5C200.6,155.3,195,160.9,188.1,160.9z
		 M188.1,139.3c-5,0-9,4.1-9,9c0,5,4.1,9,9,9c5,0,9-4.1,9-9C197.2,143.4,193.1,139.3,188.1,139.3z"/>
</g>
<path class="st1" d="M98.8,126.5H87.4c-1.2,0-2.1-1.1-2.1-2.2v-7.5c0-0.5,0.4-1.4,0.7-1.8l17.3-13.5h10.9c1.2,0,2.1,1.1,2.1,2.2
	v75.9c0,1.2-0.9,2.2-2.1,2.2H101c-1.3,0-2.2-1.1-2.2-2.2V126.5z"/>
<path d="M21.9,162.1h-8.8c-1.4,0-2.3-1.1-2.3-2.3v-2.1c0-1.4,1-2.3,2.3-2.3h9.6l3-19.9h-9c-1.2,0-2.3-1.1-2.3-2.3V131
	c0-1.2,1.1-2.3,2.3-2.3h9.9l3.9-28.1c0.1-1,1.1-2,2.2-2h2.1c1.4,0,2.5,1.2,2.2,2.7l-3.7,27.4h19.9l3.8-28.1c0.1-1,1.2-2,2.3-2h2
	c1.5,0,2.6,1.2,2.3,2.7l-3.7,27.4h7.4c1.4,0,2.3,1.1,2.3,2.3v2.1c0,1.2-1,2.3-2.3,2.3h-8.4l-2.8,19.9h7.7c1.2,0,2.3,1,2.3,2.3v2.1
	c0,1.2-1.1,2.3-2.3,2.3h-8.6l-2.8,20.9c-0.1,1.1-1.1,2-2.3,2h-2c-1.5,0-2.5-1.2-2.3-2.7l2.8-20.1h-20l-2.7,20.9
	c-0.1,1.1-1.2,2-2.3,2h-2c-1.6,0-2.6-1.2-2.3-2.7L21.9,162.1z M49.6,155.3l2.7-19.9H32.5l-3,19.9H49.6z"/>
</svg>
