<?xml version="1.0" encoding="utf-8"?>
<!-- Generator: Adobe Illustrator 19.1.0, SVG Export Plug-In . SVG Version: 6.00 Build 0)  -->
<svg version="1.1" id="Layer_1" xmlns="http://www.w3.org/2000/svg" xmlns:xlink="http://www.w3.org/1999/xlink" x="0px" y="0px"
	 viewBox="0 0 391 283.5" style="enable-background:new 0 0 391 283.5;" xml:space="preserve">
<style type="text/css">
	.st0{fill:none;stroke:#060606;stroke-width:6;stroke-miterlimit:10;}
	.st1{fill:none;stroke:#000000;stroke-width:5;}
</style>
<g>
	<g>
		<path d="M190.5,84.6c0-7.6,6.2-13.8,13.8-13.8c7.6,0,13.8,6.2,13.8,13.8c0,7.6-6.2,13.8-13.8,13.8
			C196.7,98.4,190.5,92.2,190.5,84.6z M195.3,84.6c0,4.9,4,8.9,8.9,8.9c4.9,0,8.9-4,8.9-8.9c0-4.9-4-8.9-8.9-8.9
			C199.3,75.7,195.3,79.7,195.3,84.6z"/>
		<path d="M208.8,206.5h-0.5v-32l-13.3-13.3c-0.9,5.5-2.3,14.1-2.5,15.1c-0.4,2-1.2,3.5-3.1,5.7c-1.7,2-19.1,22.4-21.9,25.7
			c-1.7,2.4-4.5,3.8-7.4,3.8c-5.1,0-9.2-4.1-9.2-9.2c0-2.5,1-4.9,2.8-6.6l17.9-21.5l5.1-29.2l0-0.1c0.8-4.1,3-14.6,4.4-21.2
			l-0.3,0.2l-8.5,16.2c-1,3.6-4.2,6-7.9,6c-4.6,0-8.3-3.7-8.3-8.3c0-1.8,0.6-3.5,1.6-4.9l9.5-17.9c0.4-0.7,1.7-3.2,3.6-4.2
			c0.9-0.5,13.6-7.7,21.9-12.4l0.1,0c0.2-0.1,5.1-2.6,10.2-1c4.2,1.4,7.4,4.2,9.3,6.3c0.7,0.8,2.4,4,10.5,20.8
			c0.8,1.6,1.5,3.2,1.9,4c1.5,0.3,5.3,1,15.3,2.7c4.2,0.5,7.3,3.9,7.3,8.1c0,4.1-3.1,7.6-7.1,8.1l-0.1,0.4l-2.3-0.5
			c-0.8-0.2-19.3-3.9-20.9-4.2c-2.5-0.5-4.5-3-5.2-4.5c-0.2-0.4-1-1.9-1.9-3.9l-1.9,9.3c4,4.2,15.4,16.4,15.8,16.9l0.1,0.1
			c0.9,0.8,3.1,3,2.9,9.3c-0.2,5.5,0,31.3,0,33l0,0.2c0,0,0,0.1,0,0.1l0,0.5l0,2.4h-0.5c-1.3,3.6-4.7,6.1-8.7,6.1
			C213.4,212.6,210,210.1,208.8,206.5z M221.8,203.5L221.8,203.5l0-0.2c0-2.8-0.2-27.7,0-33.2c0.1-4.1-1-5.2-1.4-5.6
			c-0.1-0.1-0.3-0.3-0.3-0.3c-0.5-0.5-10.2-10.9-16.6-17.7l-0.9-0.9l5.2-25.2l3.1,6.1c0.5,0.9,4.7,9.1,5.1,10.2
			c0.3,0.7,1.3,1.7,1.8,1.8c1.3,0.3,16.2,3.3,20,4.1l0.8,0.1c0.2,0,0.4,0.1,0.5,0.1c1.8,0,3.3-1.5,3.3-3.3c0-1.7-1.3-3.1-3-3.3
			l-0.2,0c-16-2.8-16.5-3-16.8-3.1c-1.6-0.5-2-1.5-2-2.3c-0.3-0.7-0.9-1.8-1.9-4c-2.6-5.5-8.8-18.2-9.8-19.7
			c-1.3-1.4-3.8-3.8-7.1-4.9c-3-1-6.1,0.5-6.5,0.6c-2.4,1.4-20.8,11.9-22.1,12.5c-0.3,0.2-1.1,1.2-1.5,2.1l-9.8,18.4l-0.1,0.2
			c-0.5,0.6-0.7,1.4-0.7,2.1c0,1.9,1.5,3.4,3.4,3.4c1.6,0,3-1.1,3.3-2.6l0.1-0.3l9.5-17.9l11.7-6.6l-2,5.9
			c-0.3,1.2-3.6,16.7-5.5,26.1l-5.3,30.4l-18.8,22.6l-0.2,0.2c-0.9,0.8-1.4,2-1.4,3.2c0,2.4,1.9,4.3,4.3,4.3c1.4,0,2.7-0.7,3.5-1.8
			l0.1-0.2c2.6-3.1,20.3-23.8,21.9-25.8c1.6-1.9,1.9-2.6,2-3.5c0.2-1.1,2.2-13.3,3.3-19.6l0.8-4.6l21.4,21.4v31.1l0,0.2
			c0.2,2.2,2.1,3.9,4.4,3.9c2.3,0,4.1-1.7,4.3-3.9l0-0.2L221.8,203.5z"/>
	</g>
	<path d="M148,180.4c0.5,0,1.9,0,1.9-1.3c0-5.5-8.1-13.7-22.7-14.5c0.1-2.6-0.6-5-2.1-6.8c-0.1-0.2-13.7-18-19.5-36.9
		c1.5,0.3,3,0.5,4.5,0.5c2.9,0,4.8-0.5,5.9-1.6c1.4-1.4,1.4-3.4,1.4-5.6l0-0.6l0-0.6c0-2.2,0-4.2-1.4-5.6c-1.1-1.1-3-1.6-5.9-1.6
		c-7.4,0-13.4,3.5-13.4,7.8c-4,1.7-12.4,5.3-13.3,5.7c-2.5,1.2-3.1,3-2.8,4.4c0.4,1.6,2,2.8,3.9,2.8c0.4,0,0.9-0.1,1.3-0.2
		c3.2-0.7,8.4-4.5,10.1-5.8c3.7,10.2,10.6,33.7,1.9,46.1c-3.7,5.3-10,8-18.6,8l-3.2,0c-5.5,0-10.6-0.3-13.1-3.7
		c-2.3-3.1-2.3-8.4-0.1-16.2c0,0,0.1-0.3,0.1-0.6c2.1-0.9,3.2-2.2,3.2-3.6c0-3.9-3.1-7.1-6.9-7.1h-41c-3.8,0-6.9,3.2-6.9,7.1
		c0,1.5,1.2,2.8,3.6,3.8c-1.5,3.8-3.2,9.8-3.2,17.4c0,3.2,2.2,6.1,6.6,8.7c-1.7,3.3-2.6,6.7-2.6,10.2c0,12.4,10.1,22.6,22.6,22.6
		c12.4,0,22.6-10.1,22.6-22.6c0-0.2,0-0.5-0.1-0.7c5,0.3,9.9,0.5,14.6,0.5c9.9,0,18.8-1.2,26.5-3.4c0.1,6.3,1.6,9,4.9,9
		c0.9,0,1.7-0.2,2.4-0.7c2.1,8.8,10.1,15.1,19.2,15.1c10.9,0,19.8-8.9,19.8-19.8c0-3.6-1-7.2-2.9-10.2c0.1,0,0.1,0,0.2,0
		C146.7,180.4,147.5,180.4,148,180.4z M85.1,122.7L85.1,122.7c-0.2,0-0.3,0.1-0.4,0.1c0.1-0.1,0.2-0.1,0.3-0.2
		c0.3-0.1,1.6-0.7,3.9-1.7C87.4,121.8,86,122.5,85.1,122.7z M100.7,112.9L100.7,112.9c1-1.7,4.6-3.5,9.5-3.5c2.7,0,3.3,0.6,3.3,0.6
		c0.3,0.3,0.3,1.9,0.3,3v1.2c0,1.1,0,2.7-0.3,3c0,0-0.6,0.6-3.3,0.6c-2.1,0-4.1-0.3-5.8-1c-1.2-0.4-2.2-1-2.9-1.7l-0.1-0.6l-0.3,0.2
		c-0.3-0.4-0.5-0.8-0.5-1.1C100.4,113.4,100.5,113.2,100.7,112.9z M18.4,147h41c1.7,0,3.1,1.5,3.2,3.2c-0.1,0.1-0.4,0.3-1.2,0.6
		c-3,1.2-10.3,2.4-22,2.5c-0.2,0-0.3,0-0.4,0c-0.1,0-0.3,0-0.4,0c-0.9,0-1.8,0-2.6-0.1l-0.4,0c-11.5-0.2-16.7-1.6-18.4-2.1
		c-1.3-0.4-1.7-0.7-1.9-0.9C15.3,148.5,16.7,147,18.4,147z M38.5,209.4c-10.4,0-18.9-8.5-18.9-18.9c0-2.9,0.7-5.8,2.1-8.5
		c1.8,0.8,3.9,1.6,6.4,2.4c-1.1,1.9-1.7,4-1.7,6.2c0,6.7,5.4,12.1,12.1,12.1c6.7,0,12.1-5.4,12.1-12.1c0-0.5,0-1.1-0.1-1.7
		c2.3,0.3,4.6,0.5,6.8,0.7c0,0.1,0,0.1,0,0.2c0,0.3,0.1,0.5,0.1,0.8C57.5,201,49,209.4,38.5,209.4z M30.1,190.5
		c0-1.8,0.6-3.6,1.8-5.1c2.7,0.7,5.4,1.3,8.1,1.8l3,0.6c0.9,0.1,1.8,0.3,2.7,0.4l0.9,0.1c0.2,0.8,0.3,1.5,0.3,2.2
		c0,4.7-3.8,8.4-8.4,8.4S30.1,195.2,30.1,190.5z M102.4,182.9c-7.7,2.5-16.7,3.8-26.8,3.8c-5,0-10.2-0.2-15.4-0.6l-0.6,0
		c-0.7,0-1.4-0.1-2.1-0.2c-2.6-0.2-5.3-0.5-8.5-1l-0.6-0.1c-1-0.1-1.9-0.3-2.8-0.4l-0.8-0.1c-0.9-0.1-1.8-0.3-2.6-0.4
		c-2.5-0.4-5-1-7.7-1.7c-1.1-0.3-2.3-0.6-3.3-0.9c-3.1-0.9-5.7-1.8-7.9-2.8c-0.8-0.3-1.5-0.7-2.4-1.2c-3.4-1.9-5.2-3.9-5.2-5.8
		c0-7.4,1.9-13.3,3.1-16.3c5.6,1.3,13.3,1.6,18.8,1.6l0.3,0c0.2,0,0.5,0,0.7,0l0.6,0c4.9,0,13.7-0.3,19.9-1.7
		c-2.1,8.3-1.8,13.9,1.1,17.8c3.6,4.8,9.9,5.2,16.1,5.2l3.2,0c9.9,0,17.1-3.2,21.6-9.6c9.8-14.1,2.1-39.7-1.7-50
		c-0.1-0.3-0.3-0.6-0.4-0.8c0.7,0.6,1.6,1.2,2.6,1.7c5.5,20.5,20.2,39.9,20.9,40.7c0.9,1.1,1.3,2.7,1.2,4.5
		C112.1,165.3,103.9,172.4,102.4,182.9z M128.6,206.7c-8.6,0-15.6-6.7-16.1-15.3c1.2-1.5,2.6-2.8,4.4-4c-0.3,1-0.4,2.1-0.4,3.2
		c0,6.7,5.4,12.1,12.1,12.1c6.7,0,12.1-5.4,12.1-12.1c0-4.1-2.1-7.8-5.4-10c1.9-0.3,3.7-0.4,5.6-0.4c2.5,3,3.9,6.7,3.9,10.5
		C144.8,199.4,137.6,206.7,128.6,206.7z M120.2,190.5c0-2,0.8-4,2.2-5.6c1.5-1.7,3.6-2.7,5.9-2.8c0.1,0,0.2,0,0.2,0c0,0,0.1,0,0.1,0
		c4.7,0,8.4,3.8,8.4,8.4s-3.8,8.4-8.4,8.4C124,199,120.2,195.2,120.2,190.5z M142.4,176.5l-0.3,0c-1,0-2.1,0-3.1,0.1l-0.6,0
		c-3.6,0.2-7.2,0.9-10.9,2c-1.8,0.5-3.3,1.1-4.7,1.7c-0.1,0-0.2,0.1-0.3,0.1c-0.1,0-0.1,0.1-0.2,0.1c-0.1,0-0.2,0.1-0.3,0.2
		l-0.5,0.2c-0.6,0.2-1.1,0.5-1.6,0.7c-3.1,1.5-5.7,3.2-7.7,5.1c-1.2,1.1-2.2,2.2-3.1,3.4c-0.2,0.3-0.5,0.7-0.7,1
		c-0.9,1.3-0.9,1.3-1.2,1.3c-0.2,0-1.3-0.3-1.3-5.9c0-0.2,0-0.4,0-0.6c0-0.2,0-0.3,0.1-0.5c0-0.9,0.1-1.9,0.3-2.8
		c0.9-4.5,3.4-8.3,7.2-10.9c0.7-0.5,1.5-0.9,2.2-1.2c2.3-1.1,4.9-1.8,7.8-2c0.2,0,0.4,0,0.7-0.1c0.4,0,0.7-0.1,1.1-0.1
		c0.2,0,0.4,0,0.6,0c0.2,0,0.3,0,0.5,0c11.2,0.3,17.1,5.1,19.2,8.3C144.5,176.5,143.5,176.5,142.4,176.5z"/>
	<path d="M351.1,212.6c-18,0-32.1-14.1-32.1-32.1s14.1-32.1,32.1-32.1s32.1,14.1,32.1,32.1S369.1,212.6,351.1,212.6z M351.1,152.7
		c-15.6,0-27.8,12.2-27.8,27.8s12.2,27.8,27.8,27.8c15.6,0,27.8-12.2,27.8-27.8S366.6,152.7,351.1,152.7z M267.2,212.6
		c-18,0-32.1-14.1-32.1-32.1s14.1-32.1,32.1-32.1c18,0,32.1,14.1,32.1,32.1S285.2,212.6,267.2,212.6z M267.2,152.7
		c-15.6,0-27.8,12.2-27.8,27.8s12.2,27.8,27.8,27.8S295,196,295,180.5S282.8,152.7,267.2,152.7z M351.1,203.6
		c-12.5,0-23.1-10.6-23.1-23.1s10.6-23.1,23.1-23.1s23.1,10.6,23.1,23.1S363.6,203.6,351.1,203.6z M351.1,161.7
		c-10.2,0-18.8,8.6-18.8,18.8s8.6,18.8,18.8,18.8c10.2,0,18.8-8.6,18.8-18.8S361.3,161.7,351.1,161.7z M267.2,203.6
		c-12.5,0-23.1-10.6-23.1-23.1s10.6-23.1,23.1-23.1c12.5,0,23.1,10.6,23.1,23.1S279.7,203.6,267.2,203.6z M267.2,161.7
		c-10.2,0-18.8,8.6-18.8,18.8s8.6,18.8,18.8,18.8c10.2,0,18.8-8.6,18.8-18.8S277.4,161.7,267.2,161.7z M315.1,194.6h-12
		c-1.2,0-2.2-1-2.2-2.2v-29l-18.4-16.1c-2.8-2.2-4.4-5.7-4.4-10.1c0-3.7,1.5-7.2,4.2-9.9l16.7-16.7c2.2-2.8,5.7-4.3,10-4.3
		c4,0,7.5,1.3,10.9,4.1c0.1,0.1,0.1,0.1,0.2,0.2l11.4,11.4c5.5,5.5,12.3,8.3,20,8.3c1.2,0,2.2,1,2.2,2.2v12c0,1.2-1,2.2-2.2,2.2
		c-12.5,0-23.3-4.4-32.1-13.2l-3.3-3.3L305,141.6l11.7,12.2c0.4,0.4,0.6,0.9,0.6,1.5v37.1C317.3,193.7,316.3,194.6,315.1,194.6z
		 M305.3,190.3h7.6v-34.1L300.4,143c-0.8-0.9-0.8-2.2,0-3l14.4-14.4c0.8-0.8,2.3-0.8,3.1,0l4.8,4.8c7.4,7.4,16.4,11.4,26.8,11.9
		v-7.7c-8-0.5-15.2-3.8-20.9-9.6l-11.3-11.3c-2.7-2.1-5.2-3-8.1-3c-2.1,0-5,0.5-6.6,2.7c-0.1,0.1-0.1,0.2-0.2,0.2l-16.8,16.8
		c-1.9,1.9-3,4.3-3,6.9c0,2.1,0.5,5,2.7,6.6c0,0,0.1,0.1,0.1,0.1l19.2,16.8c0.5,0.4,0.7,1,0.7,1.6V190.3z M330.1,113.7
		c-7.8,0-14.2-6.4-14.2-14.2c0-7.8,6.4-14.2,14.2-14.2c7.8,0,14.2,6.4,14.2,14.2C344.3,107.4,337.9,113.7,330.1,113.7z M330.1,89.8
		c-5.4,0-9.8,4.4-9.8,9.8c0,5.4,4.4,9.8,9.8,9.8c5.4,0,9.8-4.4,9.8-9.8C339.9,94.2,335.5,89.8,330.1,89.8z"/>
</g>
</svg>
