<?xml version="1.0" encoding="utf-8"?>
<!-- Generator: Adobe Illustrator 19.1.0, SVG Export Plug-In . SVG Version: 6.00 Build 0)  -->
<svg version="1.1" id="Layer_1" xmlns="http://www.w3.org/2000/svg" xmlns:xlink="http://www.w3.org/1999/xlink" x="0px" y="0px"
	 viewBox="0 0 283.5 283.5" style="enable-background:new 0 0 283.5 283.5;" xml:space="preserve">
<style type="text/css">
	.st0{stroke:#FFFFFF;stroke-width:2;stroke-miterlimit:10;}
</style>
<g>
	<path d="M134.2,78.9c-11,0-20-9-20-20s9-20,20-20s20,9,20,20S145.2,78.9,134.2,78.9z M134.2,46c-7.1,0-13,5.8-13,13s5.8,13,13,13
		c7.1,0,13-5.8,13-13S141.3,46,134.2,46z"/>
	<path d="M115.1,244.4c-5.8,0-10.7-3.6-12.6-8.8h-0.7l0-3.5l0-0.8c0-0.1,0-0.1,0-0.2l0-0.3c0-2.5,0.3-39.8,0-47.8
		c-0.3-9.1,3-12.3,4.2-13.5l0.1-0.1c0.6-0.7,17.2-18.3,23-24.4l-2.8-13.5c-1.4,2.8-2.6,5.1-2.8,5.6c-1,2.1-3.9,5.7-7.5,6.5
		c-2.2,0.5-29.1,5.9-30.3,6.1l-3.4,0.7l-0.1-0.7c-5.8-0.8-10.3-5.7-10.3-11.7c0-6,4.5-11.1,10.5-11.7c14.4-2.5,20-3.5,22.1-3.9
		c0.6-1.2,1.7-3.4,2.8-5.8c11.7-24.4,14.2-29,15.2-30.1c2.8-3.1,7.3-7.2,13.4-9.2c7.3-2.4,14.5,1.2,14.8,1.4l0.1,0.1
		c12,6.9,30.4,17.3,31.8,18c2.8,1.4,4.7,5,5.3,6l13.8,26c1.6,2.1,2.4,4.6,2.4,7.2c0,6.6-5.4,12-12,12c-5.4,0-10.1-3.6-11.5-8.7
		l-12.4-23.4l-0.5-0.3c2,9.5,5.2,24.8,6.4,30.7l0,0.1l7.4,42.3l25.9,31.2c2.6,2.5,4.1,6,4.1,9.5c0,7.3-6,13.3-13.3,13.3
		c-4.2,0-8.2-2-10.7-5.5c-4.1-4.8-29.3-34.4-31.7-37.3c-2.8-3.3-3.9-5.4-4.5-8.3c-0.3-1.4-2.3-13.8-3.7-21.8l-19.3,19.3v46.4h-0.8
		C125.8,240.8,120.9,244.4,115.1,244.4z M108.8,231.5l0,0.2c0.3,3.2,3,5.7,6.3,5.7c3.3,0,6-2.4,6.3-5.7l0-0.3v-45.1l31-31l1.1,6.7
		c1.5,9.1,4.5,26.8,4.8,28.4c0.2,1.3,0.6,2.3,2.9,5.1c2.4,2.9,28,32.9,31.8,37.4l0.2,0.2c1.2,1.7,3.1,2.7,5.1,2.7
		c3.5,0,6.3-2.8,6.3-6.3c0-1.8-0.7-3.4-2-4.6l-0.3-0.3L175,191.8l-7.8-44.1c-2.8-13.8-7.5-36.2-8-37.9l-2.9-8.6l17,9.5l13.8,26
		l0.1,0.4c0.5,2.2,2.5,3.8,4.8,3.8c2.7,0,5-2.2,5-5c0-1.1-0.4-2.2-1.1-3.1l-0.2-0.2l-14.2-26.6c-0.7-1.3-1.7-2.7-2.2-3
		c-1.9-1-28.5-16.2-32-18.2c-0.5-0.2-5.1-2.3-9.4-0.9c-4.8,1.5-8.4,5-10.3,7.1c-1.5,2.3-10.4,20.7-14.2,28.6
		c-1.5,3.1-2.3,4.8-2.8,5.8c0,1.2-0.6,2.6-2.9,3.4c-0.4,0.1-1.3,0.4-24.4,4.4l-0.2,0c-2.5,0.2-4.4,2.3-4.4,4.8
		c0,2.7,2.2,4.8,4.8,4.8c0.1,0,0.4,0,0.7-0.1l1.1-0.2c5.4-1.1,27-5.5,28.9-5.9c0.7-0.1,2.2-1.6,2.6-2.6c0.7-1.5,6.8-13.4,7.5-14.7
		l4.5-8.9l7.5,36.6l-1.2,1.3c-9.3,9.9-23.4,24.9-24.1,25.6c-0.1,0.1-0.3,0.3-0.5,0.5c-0.6,0.6-2.3,2.2-2,8.2c0.3,8.1,0,44.1,0,48.1
		l0,0.2l0,0.1L108.8,231.5z"/>
</g>
</svg>
