<?xml version="1.0" encoding="utf-8"?>
<!-- Generator: Adobe Illustrator 19.1.0, SVG Export Plug-In . SVG Version: 6.00 Build 0)  -->
<svg version="1.1" id="Layer_1" xmlns="http://www.w3.org/2000/svg" xmlns:xlink="http://www.w3.org/1999/xlink" x="0px" y="0px"
	 viewBox="0 0 283.5 283.5" style="enable-background:new 0 0 283.5 283.5;" xml:space="preserve">
<style type="text/css">
	.st0{stroke:#FFFFFF;stroke-width:2;stroke-miterlimit:10;}
</style>
<g>
	<path d="M198.5,150c0.4-3.8-0.6-7.3-2.8-10.1c-1.5-1.9-20.7-27.6-28.6-54.8c2.3,0.6,4.8,0.9,7.5,0.9c10.2,0,9.7-4.7,9.7-10.6
		c0-5.8,0.5-10.6-9.7-10.6c-10.3,0-18.6,4.7-18.6,10.6c0,0.1,0.1,0.3,0.1,0.4c-7.8,3.3-18.6,7.9-19.7,8.5c-6.2,3-3.8,8.9,1.4,8.9
		c0.5,0,1.1-0.1,1.7-0.2c5.3-1.2,15.1-8.8,15.1-8.8c9.4,25.7,22.6,80-24.4,80c-1.5,0-3.1,0-4.6,0c-14.2,0-27.9-1.4-19.8-29.7
		c0,0,0.1-0.5,0.1-1.2c2.8-1.2,4.6-2.7,4.6-4.7c0-5.3-4.1-9.6-9.2-9.6H42.1c-5.1,0-9.2,4.3-9.2,9.6c0,2.2,2.2,3.8,5.5,5.1
		c-1.9,4.7-4.9,13.7-4.9,25.5c0,4.7,3.7,8.8,9.8,12.3c-2.4,4.5-4,9.6-4,15.1c0,17.6,14.3,31.9,31.9,31.9c17.6,0,31.9-14.3,31.9-31.9
		c0-0.6-0.1-1.2-0.2-1.8c7.3,0.5,14.7,0.8,21.9,0.8c15.6,0,28.6-2,39-5.2c0,0.1,0,0.1,0,0.2c0,11.4,3.1,13.1,6.4,13.1
		c1.8,0,2.9-0.6,3.8-1.7c2.5,12.8,13.8,22.5,27.3,22.5c15.4,0,27.9-12.5,27.9-27.9c0-5.8-1.8-11.2-4.8-15.6c2.1,0.2,3.8,0.3,4.9,0.3
		c1.3,0,2-0.3,2-1.1C231.4,163.1,220.5,150.9,198.5,150z M138.7,89.4c-0.3,0.1-0.6,0.1-0.9,0.1c-0.8,0-1.2-0.3-1.2-0.4
		c0-0.1,0.3-0.7,1.5-1.2c0.7-0.4,6.2-2.7,12.7-5.5C147.1,85.2,141.5,88.8,138.7,89.4z M160.3,74.2c1.4-2.5,6.7-5.4,14.3-5.4
		c3.9,0,5,0.8,5.3,1c0.7,0.7,0.6,2.8,0.6,4.9v0.8v0.8c0,2.1,0,4.2-0.6,4.9c-0.2,0.2-1.3,1-5.3,1c-3.4,0-6.3-0.6-8.7-1.4
		c-2-0.7-3.5-1.7-4.6-2.7c0-0.1,0-0.2-0.1-0.2c0,0-0.1,0-0.1,0.1c-0.8-0.8-1.3-1.7-1.3-2.5C159.9,75.1,160.1,74.7,160.3,74.2z
		 M36.8,128.8c0-3.2,2.4-5.7,5.4-5.7h59.1c3,0,5.4,2.6,5.4,5.6c-0.2,0.4-1,0.9-2.2,1.4c-4.2,1.7-14.6,3.5-32.1,3.6
		c-0.4,0-0.8,0-1.2,0c-1.5,0-3-0.1-4.4-0.1c-14.2-0.3-22.7-1.7-26.8-3.1C38.1,129.8,37,129.2,36.8,128.8z M71.3,214.7
		c-15.5,0-28-12.6-28-28c0-4.8,1.3-9.3,3.5-13.3c3.1,1.4,6.8,2.7,10.7,3.9c-1.8,2.7-2.8,5.9-2.8,9.3c0,9.2,7.5,16.7,16.7,16.7
		s16.7-7.5,16.7-16.7c0-1.1-0.1-2.2-0.3-3.3c3.7,0.5,7.5,0.9,11.3,1.2c0.1,0.7,0.2,1.4,0.2,2.1C99.3,202.1,86.7,214.7,71.3,214.7z
		 M84.2,186.6c0,7.1-5.8,12.9-12.9,12.9s-12.9-5.8-12.9-12.9c0-3.1,1.2-6,3-8.2c3.8,1,7.8,2,12.1,2.7l4.4,0.8
		c1.9,0.3,3.8,0.5,5.7,0.8C84,184,84.2,185.3,84.2,186.6z M164.2,176.2c-10.3,3.4-23.3,5.6-39.4,5.6c-7.6,0-15.1-0.3-22.2-0.8
		c-1.3-0.1-2.6-0.2-3.9-0.3c-4.3-0.4-8.4-0.9-12.3-1.4c-1.7-0.2-3.3-0.4-4.9-0.7c-0.2,0-0.5-0.1-0.7-0.1c-1.4-0.2-2.9-0.4-4.3-0.7
		c-4-0.7-7.7-1.5-11.2-2.4c-1.6-0.4-3.3-0.8-4.8-1.2c-4.4-1.2-8.3-2.6-11.5-4.1c-1.3-0.6-2.4-1.2-3.5-1.8c-5-2.8-7.9-5.8-7.9-9
		c0-11.3,2.9-20.1,4.7-24.3c8.3,2,20.2,2.4,27.6,2.5c0.5,0,1,0,1.5,0c0.3,0,0.6,0,0.9,0c7.7,0,21-0.4,29.7-2.7
		c-3.3,12.3-3,20.7,1.2,26.2c5,6.6,13.9,7.2,22.6,7.2l2.4,0l2.3,0c14,0,24.3-4.6,30.6-13.5c14-20.1,2.9-56.8-2.6-71.6
		c-0.4-1.2-1.4-2-2.5-2.4c-0.1,0-0.3-0.1-0.5-0.1c0.7-0.3,1.5-0.6,2.2-0.9c1.1,1.6,3,2.9,5.2,4c7.9,29.8,29.8,58.4,30.1,58.8
		c1.7,2,2.2,4.7,1.8,7.6C178.2,150.6,166.1,160.8,164.2,176.2z M225.4,186.6c0,13.3-10.8,24.1-24.1,24.1c-12.9,0-23.5-10.3-24-23.1
		c1.7-2.1,4.2-4.6,8.5-7.2c-0.8,2-1.3,4.1-1.3,6.3c0,9.2,7.5,16.7,16.7,16.7s16.7-7.5,16.7-16.7c0-6.5-3.8-12.1-9.3-14.9
		c4-0.7,7.5-1,10.4-1c0,0,0,0,0,0C223.1,175,225.4,180.6,225.4,186.6z M201.4,173.7c7.1,0,12.9,5.8,12.9,12.9s-5.8,12.9-12.9,12.9
		s-12.9-5.8-12.9-12.9c0-3.3,1.3-6.3,3.3-8.5c2.3-2.5,5.5-4.2,9.1-4.3C201,173.8,201.2,173.7,201.4,173.7z M221.2,167
		c-0.6,0-1.2-0.1-1.9-0.1c-1.3,0-2.6,0.1-3.9,0.2c-5.2,0.3-10.3,1.3-15.5,2.9c-2.2,0.7-4.5,1.4-6.7,2.4c-0.3,0.1-0.5,0.2-0.7,0.3
		c-0.3,0.1-0.6,0.3-0.9,0.4c-0.9,0.4-1.9,0.8-2.7,1.2c-5.1,2.5-8.5,4.9-11,7.2c-1.9,1.8-3.3,3.4-4.4,4.8c-0.4,0.5-0.7,1-1,1.4
		c-1.5,2.2-1.6,2.2-2.3,2.2c-1.7,0-2.6-3.1-2.6-9.3c0-0.6,0.1-1.1,0.1-1.6c0.1-1.4,0.1-2.8,0.4-4.2c1.4-6.9,5.2-12.5,10.8-16.2
		c1-0.7,2.1-1.2,3.2-1.8c3.4-1.6,7.2-2.7,11.5-3c0.9-0.1,1.7-0.2,2.5-0.2c0.6,0,1,0.1,1.6,0.1c17.3,0.5,26.4,8.3,29,13.6
		C225.3,167.2,223.3,167.1,221.2,167z"/>
</g>
</svg>
