<?xml version="1.0" encoding="utf-8"?>
<!-- Generator: Adobe Illustrator 19.1.0, SVG Export Plug-In . SVG Version: 6.00 Build 0)  -->
<svg version="1.1" id="Layer_1" xmlns="http://www.w3.org/2000/svg" xmlns:xlink="http://www.w3.org/1999/xlink" x="0px" y="0px"
	 viewBox="0 0 283.5 283.5" style="enable-background:new 0 0 283.5 283.5;" xml:space="preserve">
<style type="text/css">
	.st0{fill:none;stroke:#060606;stroke-width:6;stroke-miterlimit:10;}
	.st1{fill:none;stroke:#000000;stroke-width:5;}
</style>
<g>
	<g>
		<path d="M186.4,100.3h-24.8c-9.7,0-17.5,8-17.5,17.5V155c0,5.6,4.6,10.2,10.2,10.2h2.2v37.1c0,5.6,4.6,10.2,10.2,10.2
			c2.9,0,5.6-1.1,7.5-3.3c1.9,2.1,4.6,3.3,7.5,3.3c5.6,0,10.2-4.6,10.2-10.2v-37.1h2.2c5.6,0,10.2-4.6,10.2-10.2v-37.1
			C203.9,108.2,196.1,100.3,186.4,100.3z M198.5,155.2c0,2.7-2.1,4.8-4.8,4.8h-2.2v-37.1c0-1.4-1.3-2.7-2.7-2.7
			c-1.4,0-2.7,1.3-2.7,2.7v79.2c0,2.4-1.6,4.6-4,4.9c-3,0.5-5.6-1.7-5.6-4.6v-39.8c0-1.4-1.3-2.7-2.7-2.7l0,0
			c-1.4,0-2.7,1.3-2.7,2.7v39.8c0,2.9-2.7,5.1-5.6,4.6c-2.4-0.5-4-2.5-4-4.9v-79.2c0-1.4-1.3-2.7-2.7-2.7s-2.7,1.3-2.7,2.7v37.1
			h-2.1c-2.7,0-4.8-2.1-4.8-4.8v-37.2c0-6.7,5.4-12.2,12.2-12.2h24.8c6.7,0,12.2,5.4,12.2,12.2v37.2H198.5z"/>
		<path d="M174,98.5c7.6,0,13.8-6.2,13.8-13.8s-6.2-13.8-13.8-13.8s-13.8,6.2-13.8,13.8S166.4,98.5,174,98.5z M174,76.3
			c4.6,0,8.4,3.8,8.4,8.4s-3.8,8.4-8.4,8.4c-4.6,0-8.4-3.8-8.4-8.4C165.4,80.1,169.2,76.3,174,76.3z"/>
	</g>
	<g>
		<path d="M48.9,100.3H24.1c-9.7,0-17.5,8-17.5,17.5V155c0,5.6,4.6,10.2,10.2,10.2H19v37.1c0,5.6,4.6,10.2,10.2,10.2
			c2.9,0,5.6-1.1,7.5-3.3c1.9,2.1,4.6,3.3,7.5,3.3c5.6,0,10.2-4.6,10.2-10.2v-37.1h2.2c5.6,0,10.2-4.6,10.2-10.2v-37.1
			C66.4,108.2,58.6,100.3,48.9,100.3z M61,155.2c0,2.7-2.1,4.8-4.8,4.8H54v-37.1c0-1.4-1.3-2.7-2.7-2.7s-2.7,1.3-2.7,2.7v79.2
			c0,2.4-1.6,4.6-4,4.9c-3,0.5-5.6-1.7-5.6-4.6v-39.8c0-1.4-1.3-2.7-2.7-2.7l0,0c-1.4,0-2.7,1.3-2.7,2.7v39.8c0,2.9-2.7,5.1-5.6,4.6
			c-2.4-0.5-4-2.5-4-4.9v-79.2c0-1.4-1.3-2.7-2.7-2.7c-1.4,0-2.7,1.3-2.7,2.7v37.1h-2.1c-2.7,0-4.8-2.1-4.8-4.8v-37.2
			c0-6.7,5.4-12.2,12.2-12.2h24.8c6.7,0,12.2,5.4,12.2,12.2v37.2H61z"/>
		<path d="M36.5,98.5c7.6,0,13.8-6.2,13.8-13.8s-6.2-13.8-13.8-13.8s-13.8,6.2-13.8,13.8S28.9,98.5,36.5,98.5z M36.5,76.3
			c4.6,0,8.4,3.8,8.4,8.4s-3.8,8.4-8.4,8.4s-8.4-3.8-8.4-8.4C27.9,80.1,31.8,76.3,36.5,76.3z"/>
	</g>
	<g>
		<path d="M117.7,100.3H92.9c-9.7,0-17.5,8-17.5,17.5V155c0,5.6,4.6,10.2,10.2,10.2h2.2v37.1c0,5.6,4.6,10.2,10.2,10.2
			c2.9,0,5.6-1.1,7.5-3.3c1.9,2.1,4.6,3.3,7.5,3.3c5.6,0,10.2-4.6,10.2-10.2v-37.1h2.2c5.6,0,10.2-4.6,10.2-10.2v-37.1
			C135.2,108.2,127.4,100.3,117.7,100.3z M129.8,155.2c0,2.7-2.1,4.8-4.8,4.8h-2.2v-37.1c0-1.4-1.3-2.7-2.7-2.7
			c-1.4,0-2.7,1.3-2.7,2.7v79.2c0,2.4-1.6,4.6-4,4.9c-3,0.5-5.6-1.7-5.6-4.6v-39.8c0-1.4-1.3-2.7-2.7-2.7l0,0
			c-1.4,0-2.7,1.3-2.7,2.7v39.8c0,2.9-2.7,5.1-5.6,4.6c-2.4-0.5-4-2.5-4-4.9v-79.2c0-1.4-1.3-2.7-2.7-2.7s-2.7,1.3-2.7,2.7v37.1
			h-2.1c-2.7,0-4.8-2.1-4.8-4.8v-37.2c0-6.7,5.4-12.2,12.2-12.2h24.8c6.7,0,12.2,5.4,12.2,12.2v37.2H129.8z"/>
		<path d="M105.3,98.5c7.6,0,13.8-6.2,13.8-13.8s-6.2-13.8-13.8-13.8s-13.8,6.2-13.8,13.8S97.6,98.5,105.3,98.5z M105.3,76.3
			c4.6,0,8.4,3.8,8.4,8.4s-3.8,8.4-8.4,8.4s-8.4-3.8-8.4-8.4C96.7,80.1,100.5,76.3,105.3,76.3z"/>
	</g>
	<g>
		<path d="M267.3,113.8L267.3,113.8L267.3,113.8c-1.9-8-8.9-13.5-17-13.5h-15c-8.1,0-15.1,5.6-17,13.4l-9.1,37.2
			c-1.3,5.4,2.1,11,7.5,12.2l2.2,0.5l-2.4,10.7c0,0.2,0,0.3,0,0.3c0,0.3,0,0.6,0,1c0,0.5,0.2,0.8,0.5,1.1c0.3,0.3,0.5,0.6,1,0.8
			c0.3,0.2,0.6,0.2,1,0.3c0.2,0,0.3,0,0.3,0h6v24.7c0,5.6,4.6,10.2,10.2,10.2c2.9,0,5.6-1.1,7.5-3.3c1.9,2.1,4.6,3.3,7.5,3.3
			c5.6,0,10.2-4.6,10.2-10.2v-24.8h5.9c0.2,0,0.2,0,0.3,0c0.3,0,0.6-0.2,1-0.3c0.3-0.2,0.6-0.5,1-0.8c0.3-0.3,0.5-0.6,0.5-1.1
			c0-0.3,0.2-0.6,0-1c0-0.2,0-0.2,0-0.3l-2.5-10.7l2.4-0.6c2.5-0.6,4.8-2.2,6.2-4.6c1.4-2.2,1.9-4.9,1.3-7.6L267.3,113.8z
			 M270.4,155.8c-0.6,1.1-1.7,1.9-3,2.1l-2.4,0.6l-8.6-36.4c-0.3-1.4-1.7-2.4-3.2-1.9l0,0c-1.4,0.3-2.4,1.7-1.9,3.2l11.5,48.8h-8
			v5.2v24.7c0,2.4-1.6,4.6-4,4.9c-3,0.5-5.6-1.7-5.6-4.6v-27.4c0-1.4-1.3-2.7-2.7-2.7c-1.4,0-2.5,1.1-2.5,2.7v27.4
			c0,2.9-2.7,5.1-5.6,4.6c-2.4-0.5-4-2.7-4-4.9v-29.9h-8l11.6-48.8c0.3-1.4-0.5-2.9-2.1-3.2c-1.4-0.3-2.9,0.5-3.2,2.1l-8.6,36.1
			l-2.2-0.5c-1.3-0.3-2.2-1.1-3-2.1c-0.6-1.1-1-2.4-0.6-3.7l8.9-37.1l0.6-1.6c1.7-4.8,6.2-7.8,11.3-7.8h15c5.7,0,10.5,3.8,11.9,9.4
			l8.9,37.1l0,0C271.2,153.4,271,154.7,270.4,155.8z"/>
		<path d="M242.7,98.5c7.6,0,13.8-6.2,13.8-13.8s-6.2-13.8-13.8-13.8s-13.8,6.2-13.8,13.8S235,98.5,242.7,98.5z M242.7,76.3
			c4.6,0,8.4,3.8,8.4,8.4s-3.8,8.4-8.4,8.4c-4.6,0-8.4-3.8-8.4-8.4S238.1,76.3,242.7,76.3z"/>
	</g>
</g>
</svg>
