<?xml version="1.0" encoding="utf-8"?>
<!-- Generator: Adobe Illustrator 19.1.0, SVG Export Plug-In . SVG Version: 6.00 Build 0)  -->
<svg version="1.1" id="Layer_1" xmlns="http://www.w3.org/2000/svg" xmlns:xlink="http://www.w3.org/1999/xlink" x="0px" y="0px"
	 viewBox="0 0 283.5 283.5" style="enable-background:new 0 0 283.5 283.5;" xml:space="preserve">
<style type="text/css">
	.st0{stroke:#FFFFFF;stroke-width:2;stroke-miterlimit:10;}
</style>
<g>
	<g>
		<path class="st0" d="M112.7,83.7H77.9c-13.6,0-24.5,11.1-24.5,24.5v52.1c0,7.8,6.5,14.3,14.3,14.3h3.1v51.9
			c0,7.8,6.5,14.3,14.3,14.3c4,0,7.8-1.6,10.5-4.7c2.7,2.9,6.5,4.7,10.5,4.7c7.8,0,14.3-6.5,14.3-14.3v-51.9h3.1
			c7.8,0,14.3-6.5,14.3-14.3v-51.9C137.2,94.9,126.3,83.7,112.7,83.7z M129.6,160.5c0,3.8-2.9,6.7-6.7,6.7h-3.1v-51.9
			c0-2-1.8-3.8-3.8-3.8c-2,0-3.8,1.8-3.8,3.8v110.9c0,3.3-2.2,6.5-5.6,6.9c-4.2,0.7-7.8-2.4-7.8-6.5V171c0-2-1.8-3.8-3.8-3.8l0,0
			c-2,0-3.8,1.8-3.8,3.8v55.7c0,4-3.8,7.1-7.8,6.5c-3.3-0.7-5.6-3.6-5.6-6.9V115.3c0-2-1.8-3.8-3.8-3.8c-2,0-3.8,1.8-3.8,3.8v51.9
			h-2.9c-3.8,0-6.7-2.9-6.7-6.7v-52.1c0-9.4,7.6-17.1,17.1-17.1h34.7c9.4,0,17.1,7.6,17.1,17.1v52.1H129.6z"/>
		<path class="st0" d="M95.3,81.3c10.7,0,19.4-8.7,19.4-19.4S106,42.5,95.3,42.5s-19.4,8.7-19.4,19.4S84.6,81.3,95.3,81.3z
			 M95.3,50.1c6.5,0,11.8,5.3,11.8,11.8s-5.3,11.8-11.8,11.8s-11.8-5.3-11.8-11.8C83.3,55.4,88.6,50.1,95.3,50.1z"/>
	</g>
	<path class="st0" d="M229.8,102.6L229.8,102.6L229.8,102.6c-2.7-11.1-12.5-18.9-23.8-18.9h-20.9c-11.4,0-21.2,7.8-23.8,18.7
		l-12.7,52.1c-1.8,7.6,2.9,15.4,10.5,17.1l3.1,0.7l-3.3,14.9c0,0.2,0,0.4,0,0.4c0,0.4,0,0.9,0,1.3c0,0.7,0.2,1.1,0.7,1.6
		c0.4,0.4,0.7,0.9,1.3,1.1c0.4,0.2,0.9,0.2,1.3,0.4c0.2,0,0.4,0,0.4,0h8.5v34.5c0,7.8,6.5,14.3,14.3,14.3c4,0,7.8-1.6,10.5-4.7
		c2.7,2.9,6.5,4.7,10.5,4.7c7.8,0,14.3-6.5,14.3-14.3v-34.7h8.2c0.2,0,0.2,0,0.4,0c0.4,0,0.9-0.2,1.3-0.4c0.4-0.2,0.9-0.7,1.3-1.1
		c0.4-0.4,0.7-0.9,0.7-1.6c0-0.4,0.2-0.9,0-1.3c0-0.2,0-0.2,0-0.4l-3.6-14.9l3.3-0.9c3.6-0.9,6.7-3.1,8.7-6.5
		c2-3.1,2.7-6.9,1.8-10.7L229.8,102.6z M234,161.4c-0.9,1.6-2.4,2.7-4.2,2.9l-3.3,0.9l-12-51c-0.4-2-2.4-3.3-4.5-2.7l0,0
		c-2,0.4-3.3,2.4-2.7,4.5l16,68.4h-11.1v7.3v34.5c0,3.3-2.2,6.5-5.6,6.9c-4.2,0.7-7.8-2.4-7.8-6.5v-38.3c0-2-1.8-3.8-3.8-3.8
		c-2,0-3.6,1.6-3.6,3.8v38.3c0,4-3.8,7.1-7.8,6.5c-3.3-0.7-5.6-3.8-5.6-6.9v-41.9H167l16.3-68.4c0.4-2-0.7-4-2.9-4.5
		c-2-0.4-4,0.7-4.5,2.9l-12,50.6l-3.1-0.7c-1.8-0.4-3.1-1.6-4.2-2.9c-0.9-1.6-1.3-3.3-0.9-5.1l12.5-51.9l0.9-2.2
		c2.4-6.7,8.7-10.9,15.8-10.9h20.9c8,0,14.7,5.3,16.7,13.1l12.5,51.9l0,0C235.2,158.1,234.9,159.9,234,161.4z"/>
	<path class="st0" d="M195.3,81.3c10.7,0,19.4-8.7,19.4-19.4s-8.7-19.4-19.4-19.4c-10.7,0-19.4,8.7-19.4,19.4S184.6,81.3,195.3,81.3
		z M195.3,50.1c6.5,0,11.8,5.3,11.8,11.8s-5.3,11.8-11.8,11.8s-11.8-5.3-11.8-11.8S188.8,50.1,195.3,50.1z"/>
</g>
</svg>
