<?xml version="1.0" encoding="utf-8"?>
<!-- Generator: Adobe Illustrator 19.1.0, SVG Export Plug-In . SVG Version: 6.00 Build 0)  -->
<svg version="1.1" id="Layer_1" xmlns="http://www.w3.org/2000/svg" xmlns:xlink="http://www.w3.org/1999/xlink" x="0px" y="0px"
	 viewBox="0 0 283.5 283.5" style="enable-background:new 0 0 283.5 283.5;" xml:space="preserve">
<style type="text/css">
	.st0{stroke:#FFFFFF;stroke-width:2;stroke-miterlimit:10;}
</style>
<g>
	<path d="M141.7,77.8c-42.8,0-81.8,25-96.9,62.3l-0.7,1.7l0.7,1.7c15.1,37.2,54.1,62.3,96.9,62.3c42.8,0,81.8-25,96.9-62.3l0.7-1.7
		l-0.7-1.7c0,0,0,0,0,0C223.5,102.8,184.6,77.8,141.7,77.8z M106.5,189.1c-0.3,0.5-0.8,0.8-1.3,0.8c-0.2,0-0.4,0-0.6-0.1
		c-22.9-9-41.3-26.3-50.6-47.4c-0.2-0.4-0.2-0.8,0-1.2c9.3-21.1,27.8-38.3,50.6-47.4c0.7-0.3,1.5,0,1.9,0.6c0.4,0.6,0.2,1.5-0.4,1.9
		C92,107.4,84,123.9,84,141.7c0,17.8,8.1,34.4,22.1,45.4C106.7,187.6,106.9,188.4,106.5,189.1z M141.7,190.6
		c-26.9,0-48.9-21.9-48.9-48.9s21.9-48.9,48.9-48.9c27,0,48.9,21.9,48.9,48.9S168.7,190.6,141.7,190.6z M229.5,142.3
		c-9.3,21.1-27.8,38.3-50.6,47.4c-0.2,0.1-0.4,0.1-0.6,0.1c-0.5,0-1-0.3-1.3-0.8c-0.4-0.6-0.2-1.5,0.4-1.9
		c14.1-11.1,22.1-27.6,22.1-45.4c0-17.8-8.1-34.4-22.1-45.4c-0.6-0.5-0.7-1.3-0.4-1.9c0.4-0.6,1.2-0.9,1.9-0.6
		c22.9,9,41.3,26.3,50.6,47.4C229.6,141.5,229.6,142,229.5,142.3z"/>
	<path d="M141.7,113.5c-15.6,0-28.2,12.7-28.2,28.2s12.7,28.2,28.2,28.2c15.6,0,28.2-12.7,28.2-28.2S157.3,113.5,141.7,113.5z"/>
</g>
</svg>
