<?xml version="1.0" encoding="utf-8"?>
<!-- Generator: Adobe Illustrator 19.1.0, SVG Export Plug-In . SVG Version: 6.00 Build 0)  -->
<svg version="1.1" id="Layer_1" xmlns="http://www.w3.org/2000/svg" xmlns:xlink="http://www.w3.org/1999/xlink" x="0px" y="0px"
	 viewBox="0 0 283.5 283.5" style="enable-background:new 0 0 283.5 283.5;" xml:space="preserve">
<style type="text/css">
	.st0{stroke:#FFFFFF;stroke-width:2;stroke-miterlimit:10;}
</style>
<g>
	<path d="M189.2,192.3c2,3.7,12.4,23,19,33.8c2.6,3.8,6.6,6.1,10.8,6.1c1.5,0,3-0.3,4.1-0.7c2.1-0.7,4.1-2.4,5.6-4.7
		c1.3-2.4,1.9-4.5,1.9-6.8c-0.2-1.9-0.5-3.4-1.2-4.9c0,0,0,0,0-0.1c-5.8-13.4-18.2-41.2-20.6-46.3c-1-2.3-2.8-5.7-5.6-8.5
		c-3.1-3.1-6.8-4.7-10.7-4.7h-22c-5.1,0-6.4-0.6-6.7-1.2c-0.2-0.2-0.5-0.4-0.7-0.8c-0.6-0.8-1.2-2.6-1.4-3.2c-2-6.6-3-12.7-3-18
		c0-2.7,0.8-6.3,1.8-11.2l0.1-0.4c1-3.9,2.1-9,2.1-14.1c0-5.5-2.8-10.5-7.8-14c-4.8-3.5-11.1-5.4-18.2-5.4c-4.4,0-10.1,0.4-14.5,3.5
		c-1.9,1.2-3.7,3.2-5,5.5c-1.2,1.9-2.2,4.3-3.3,7l-0.3,0.8c-0.8,2.1-2.6,8.2-4.2,14.9c-1.5,6.3-2.3,12-2.6,16.8
		c0,0.4-0.2,0.7-0.6,0.9c-19.1,8.8-31.4,28-31.4,49.1c0,29.8,24.2,54,54,54c28.6,0,52.2-22.4,53.8-50.9c0-0.5,0.5-0.9,1-0.9
		c1.4,0,2.3,0.5,2.9,0.8l0.2,0.1c0,0,0.1,0,0.1,0.1C187.8,189.7,188.4,190.7,189.2,192.3z M160.7,218.6
		c-8.7,8.7-20.2,13.5-32.5,13.5c-12.2,0-23.7-4.8-32.5-13.5c-8.7-8.7-13.5-20.3-13.5-32.7c0-16.3,8.6-31.1,23-39.5
		c0.3-0.2,0.7-0.2,1,0c0.3,0.2,0.5,0.4,0.5,0.8c0.8,6.8,2,12.4,4.7,20.4l1,2.1c0,0,0,0.1,0,0.1c1.6,3.9,3.4,8,6.7,11.9
		c2,2.3,4.5,4,7.3,5c2.9,1.2,6.4,1.8,10.8,1.8H173c0.3,0,0.5,0.1,0.7,0.3c0.2,0.2,0.3,0.5,0.3,0.8
		C173.2,200.5,168.4,210.9,160.7,218.6z M182.5,180h-45c-3.5,0-6-0.4-7.8-1.1c-2.9-1.5-4.6-2.6-6.3-5.4c-1.5-2.3-2.8-5-3.8-7.8
		l-0.5-1c-3.4-8.4-4.9-16.8-4.9-28c0-3.9,0.8-9.3,2.4-15.6c1.7-7.5,3.8-13.7,4-14.4c0.9-2.8,1.7-4.8,2.8-6.1c1.2-1.7,2.4-3,4.3-4
		c2-0.8,4.3-1.2,8.4-1.2c5.5,0,10.2,1.4,13.6,3.9c2.8,2,4.4,4.7,4.4,7.7c0,3.3-0.6,7.2-1.9,12.3v1.2c0,0.1,0,0.1,0,0.2
		c-0.2,0.8-0.3,1.5-0.5,2.3c-0.7,3.1-1.4,6.4-1.4,9.7c0,5.8,1.1,12.5,3.4,20.4c0.7,2.1,1.4,3.9,2.3,5.7c1.5,2.4,3.9,4.3,6.5,5
		c2.3,0.7,5,1,8.2,1h21.4c1.8,0,3.4,0.4,5.2,2.1c1.5,1.5,2.9,3.5,4.2,6.1c2.4,4.8,15,33,20.7,45.8c0,0.1,0.1,0.2,0.1,0.3l0,0.1
		c0.1,0.2,0.2,0.6,0.2,1.1c0,1.2-0.4,2.2-0.6,2.6c-0.4,0.8-1.1,1.2-1.2,1.2c-0.7,0.4-1.2,0.4-1.8,0.4c-1.4,0-3-0.3-4-2.4
		c-4.8-7.5-11.6-20-15.7-27.5c-1.5-2.8-2.7-4.9-3.1-5.6c-1-1.9-2.5-4.5-5-6.3C188.9,181,185.9,180,182.5,180z"/>
	<path d="M157.1,43.5c-11.6,0-21,9.4-21,21c0,11.6,9.4,21,21,21s21-9.4,21-21C178.1,52.9,168.7,43.5,157.1,43.5z M157.1,77.1
		c-6.9,0-12.6-5.8-12.6-12.6s5.8-12.6,12.6-12.6c6.9,0,12.6,5.8,12.6,12.6S164,77.1,157.1,77.1z"/>
</g>
</svg>
