<?xml version="1.0" encoding="utf-8"?>
<!-- Generator: Adobe Illustrator 19.1.0, SVG Export Plug-In . SVG Version: 6.00 Build 0)  -->
<svg version="1.1" id="Layer_1" xmlns="http://www.w3.org/2000/svg" xmlns:xlink="http://www.w3.org/1999/xlink" x="0px" y="0px"
	 viewBox="0 0 283.5 283.5" style="enable-background:new 0 0 283.5 283.5;" xml:space="preserve">
<style type="text/css">
	.st0{fill:none;stroke:#060606;stroke-width:6;stroke-miterlimit:10;}
	.st1{fill:none;stroke:#000000;stroke-width:5;}
</style>
<path d="M191.3,230.8c-24.9,0-44.3-19.5-44.3-44.3s19.5-44.3,44.3-44.3s44.3,19.5,44.3,44.3S216.1,230.8,191.3,230.8z M191.3,148.1
	c-21.5,0-38.3,16.8-38.3,38.3s16.8,38.3,38.3,38.3s38.3-16.8,38.3-38.3S212.8,148.1,191.3,148.1z M75.5,230.8
	c-24.9,0-44.3-19.5-44.3-44.3s19.5-44.3,44.3-44.3s44.3,19.5,44.3,44.3S100.4,230.8,75.5,230.8z M75.5,148.1
	c-21.5,0-38.3,16.8-38.3,38.3s16.8,38.3,38.3,38.3s38.3-16.8,38.3-38.3S97,148.1,75.5,148.1z M191.3,218.4
	c-17.3,0-31.9-14.6-31.9-31.9s14.6-31.9,31.9-31.9s31.9,14.6,31.9,31.9S208.6,218.4,191.3,218.4z M191.3,160.5
	c-14.1,0-25.9,11.9-25.9,25.9s11.9,25.9,25.9,25.9c14.1,0,25.9-11.9,25.9-25.9S205.3,160.5,191.3,160.5z M75.5,218.4
	c-17.3,0-31.9-14.6-31.9-31.9s14.6-31.9,31.9-31.9s31.9,14.6,31.9,31.9S92.8,218.4,75.5,218.4z M75.5,160.5
	c-14.1,0-25.9,11.9-25.9,25.9s11.9,25.9,25.9,25.9c14.1,0,25.9-11.9,25.9-25.9S89.6,160.5,75.5,160.5z M141.7,206h-16.5
	c-1.7,0-3-1.3-3-3v-40l-25.4-22.2c-3.9-3-6.1-7.9-6.1-13.9c0-5.1,2.1-9.9,5.8-13.7l23-23c3-3.9,7.9-6,13.8-6
	c5.5,0,10.3,1.8,15.1,5.6c0.1,0.1,0.2,0.1,0.2,0.2l15.7,15.7c7.6,7.6,16.9,11.5,27.6,11.5c1.7,0,3,1.3,3,3v16.5c0,1.7-1.3,3-3,3
	c-17.3,0-32.2-6.1-44.3-18.2l-4.5-4.5l-15.6,15.6l16.2,16.9c0.5,0.6,0.8,1.3,0.8,2.1V203C144.7,204.6,143.3,206,141.7,206z
	 M128.1,200h10.5v-47.1l-17.4-18.1c-1.1-1.2-1.1-3,0-4.2l19.8-19.8c1.1-1.1,3.1-1.1,4.2,0l6.6,6.6c10.2,10.2,22.7,15.7,37,16.4
	v-10.6c-11-0.7-20.9-5.2-28.9-13.2l-15.6-15.6c-3.7-2.9-7.1-4.2-11.2-4.2c-2.9,0-6.8,0.7-9.2,3.8c-0.1,0.1-0.2,0.2-0.3,0.3
	l-23.1,23.1c-2.6,2.6-4.1,6-4.1,9.5c0,2.9,0.7,6.8,3.8,9.2c0.1,0,0.1,0.1,0.2,0.1l26.5,23.1c0.7,0.6,1,1.4,1,2.3V200z M162.3,94.4
	c-10.8,0-19.5-8.8-19.5-19.5c0-10.8,8.8-19.5,19.5-19.5c10.8,0,19.5,8.8,19.5,19.5C181.9,85.6,173.1,94.4,162.3,94.4z M162.3,61.3
	c-7.5,0-13.5,6.1-13.5,13.5s6.1,13.5,13.5,13.5c7.5,0,13.5-6.1,13.5-13.5S169.8,61.3,162.3,61.3z"/>
</svg>
