<?xml version="1.0" encoding="utf-8"?>
<!-- Generator: Adobe Illustrator 19.1.0, SVG Export Plug-In . SVG Version: 6.00 Build 0)  -->
<svg version="1.1" id="Layer_1" xmlns="http://www.w3.org/2000/svg" xmlns:xlink="http://www.w3.org/1999/xlink" x="0px" y="0px"
	 viewBox="0 0 283.5 283.5" style="enable-background:new 0 0 283.5 283.5;" xml:space="preserve">
<style type="text/css">
	.st0{stroke:#FFFFFF;stroke-width:2;stroke-miterlimit:10;}
</style>
<path d="M158,170.9c3.6,17.4,19,30,36.7,30c20.7,0,37.5-16.8,37.5-37.5c0-20.7-16.8-37.5-37.5-37.5c-4.1,0-8.1,0.7-12,2
	c-0.5,0.2-1-0.1-1.2-0.5c-3-6.7-6.5-14.4-10.6-23.6c-0.1-0.2-0.1-0.5,0-0.8l2.6-7.2c0.1-0.4,0.5-0.7,0.9-0.7l8-0.1v-5.5h-32.4
	c-0.5,0.7-0.4,1-0.4,1.1c0.4,0.9,4.6,1.8,9.9,2.9c1.9,0.4,4,0.8,6.4,1.4c0.3,0.1,0.5,0.2,0.7,0.5c0.1,0.3,0.2,0.5,0.1,0.8l-2.6,7.4
	c-0.1,0.4-0.5,0.7-0.9,0.7h-67c-0.3,0-0.6-0.1-0.8-0.4c-0.2-0.3-0.2-0.6-0.2-0.9c0.4-1.6,0.8-2.9,1.2-4.2c3-11.2,3.6-11.2,18.2-11.1
	c0.9,0,1.8,0,2.9,0v-5.7c-1.3,0-2.6,0-3.8,0c-9.5,0-14.3,0-17.6,3.4c-3.4,3.5-5.6,10.9-10,25.6c-1.3,4.5-2.9,9.6-4.7,15.5
	c-0.1,0.5-0.6,0.8-1.1,0.7c-2.3-0.4-4.6-0.6-6.9-0.6c-20.7,0-37.5,16.8-37.5,37.5c0,20.7,16.8,37.5,37.5,37.5
	c20.7,0,37.5-16.8,37.5-37.5c0-15-9-28.6-22.8-34.5c-0.5-0.2-0.7-0.7-0.6-1.2c0.8-2.6,1.7-5.5,2.7-8.5c0.1-0.3,0.4-0.6,0.7-0.7
	c0.3-0.1,0.7,0,0.9,0.3c17.3,18.2,27.2,29.8,33.7,37.5c11.3,13.2,11.3,13.2,20.9,13.1c2.6,0,5.9-0.1,10.2,0.1l0.4,0c0,0,0,0,0,0
	C157.5,170.1,157.9,170.5,158,170.9z M103.8,164c0,16.8-13.7,30.5-30.5,30.5c-16.8,0-30.5-13.7-30.5-30.5s13.7-30.5,30.5-30.5
	c1.5,0,3,0.1,4.5,0.3c0.3,0,0.5,0.2,0.7,0.5c0.2,0.2,0.2,0.6,0.1,0.8c-8.1,25.6-8.3,26.4-8.3,27.8c0,0.2,0,0.4,0,0.7
	c0,1.5,1.2,2.8,2.8,2.9l0.1,0c2.3-0.2,2.4-0.2,7.8-17.7c1-3.3,2.2-7.2,3.7-11.9c0.1-0.3,0.3-0.5,0.5-0.6c0.3-0.1,0.6-0.1,0.8,0
	C96.9,141.3,103.8,152.2,103.8,164z M185.3,134.8c0.1-0.3,0.3-0.5,0.6-0.5c2.9-0.9,5.9-1.3,8.9-1.3c16.8,0,30.5,13.7,30.5,30.5
	c0,16.8-13.7,30.5-30.5,30.5c-13.7,0-25.8-9.3-29.4-22.5c-0.1-0.3,0-0.6,0.2-0.9c0.2-0.2,0.5-0.4,0.8-0.4h0c6.9,0,12.3,0.1,16.7,0.2
	c15.2,0.2,15.9,0.1,16.2-2.9c-0.1-1.2-1-3.3-9.4-21.8l-4.5-10C185.2,135.3,185.2,135,185.3,134.8z M178.9,137.8
	c0.3,0.1,0.5,0.3,0.6,0.5l11.1,24.6c0.1,0.3,0.1,0.7-0.1,1c-0.2,0.3-0.5,0.5-0.8,0.5c0,0,0,0,0,0l-24.5-0.1c-0.3,0-0.5-0.1-0.7-0.3
	c-0.2-0.2-0.3-0.4-0.3-0.7c0-10.3,5.2-19.8,13.8-25.4C178.3,137.7,178.6,137.7,178.9,137.8z M141.8,162.5c-0.1,0.3-0.4,0.6-0.7,0.6
	c-0.1,0-0.1,0-0.2,0c-0.3,0-0.5-0.1-0.7-0.3l-46.6-50.8c-0.3-0.3-0.3-0.7-0.2-1.1c0.2-0.4,0.5-0.6,0.9-0.6l65.5-0.1c0,0,0,0,0,0
	c0.3,0,0.6,0.2,0.8,0.4c0.2,0.3,0.2,0.6,0.1,0.9L141.8,162.5z M156.3,164.3C156.3,164.3,156.3,164.3,156.3,164.3l-7.2,0
	c-0.3,0-0.6-0.2-0.8-0.4c-0.2-0.3-0.2-0.6-0.1-0.9l18.6-48.8c0.1-0.4,0.5-0.6,0.9-0.6c0.4,0,0.8,0.2,0.9,0.6l7.2,16
	c0.2,0.5,0,1-0.4,1.3c-11.3,6.8-18.1,18.8-18.2,32C157.3,163.8,156.8,164.3,156.3,164.3z"/>
</svg>
