<?xml version="1.0" encoding="utf-8"?>
<!-- Generator: Adobe Illustrator 19.1.0, SVG Export Plug-In . SVG Version: 6.00 Build 0)  -->
<svg version="1.1" id="Layer_1" xmlns="http://www.w3.org/2000/svg" xmlns:xlink="http://www.w3.org/1999/xlink" x="0px" y="0px"
	 viewBox="0 0 283.5 283.5" style="enable-background:new 0 0 283.5 283.5;" xml:space="preserve">
<style type="text/css">
	.st0{stroke:#FFFFFF;stroke-width:2;stroke-miterlimit:10;}
</style>
<g>
	<g>
		<g>
			<path d="M146,75.3l-5.7,0c-3.3,0-7.5,0-11.2,0c-3.3,0-6.2,0-7.8,0.1c-19.7,0.6-38,8.8-51.5,23.1c-13.6,14.4-20.7,33.1-20.1,52.8
				c0.6,21,10.1,40.7,26.1,54.3c0.6,0.5,1.3,0.8,2.1,0.8c0.4,0,42.3,1.3,82.6,1.5c4.9,0,9.8,0.1,14.2,0.2l0.3,0
				c5.3,0.1,10.4,0.2,15.3,0.2c25.4,0,52.5-2.3,52.7-29.8l0-0.2c0.4-4.3,0-18.1-3.1-23.8l-0.1-0.1c-0.9-2.1-9.4-20.6-24.4-39.1
				C194.3,89.1,170.4,75.3,146,75.3z M233.8,157.5c2.2,3.8,2.8,16.8,2.4,19.8l0,0.2c0,0.2-0.1,0.5-0.1,0.7
				c0,19.4-16.8,23.2-45.9,23.2c-5,0-10.3-0.1-15.4-0.2l-0.4,0c-4.6-0.1-9.3-0.2-14-0.2c-35.9-0.2-73.2-1.2-80.3-1.4l-0.9,0
				l-0.7-0.6C65,186.7,56.9,169.2,56.4,151c-1.1-37,28.2-67.9,65.1-68.9c3.6-0.1,13-0.1,19.3,0l5.3,0c53.9,0,87.3,74.4,87.6,75.1
				C233.7,157.3,233.7,157.4,233.8,157.5z"/>
			<g>
				<g>
					<path d="M237.5,162.4h-77.1c-12.5,0-22.6-10.1-22.6-22.6c0-11.9,9.1-21.6,20.9-22.5c0.3-0.1,0.6-0.1,0.9-0.1h53.2
						c1.6,0,2.9,1.3,2.9,2.9s-1.3,2.9-2.9,2.9h-52.5c-0.2,0-0.4,0.1-0.6,0.1c-8.9,0.4-16,7.7-16,16.7c0,9.2,7.5,16.7,16.7,16.7h77.1
						c1.6,0,2.9,1.3,2.9,2.9C240.5,161,239.2,162.4,237.5,162.4z"/>
				</g>
			</g>
		</g>
	</g>
</g>
</svg>
