<?xml version="1.0" encoding="utf-8"?>
<!-- Generator: Adobe Illustrator 19.1.0, SVG Export Plug-In . SVG Version: 6.00 Build 0)  -->
<svg version="1.1" id="Layer_1" xmlns="http://www.w3.org/2000/svg" xmlns:xlink="http://www.w3.org/1999/xlink" x="0px" y="0px"
	 viewBox="0 0 283.5 283.5" style="enable-background:new 0 0 283.5 283.5;" xml:space="preserve">
<style type="text/css">
	.st0{stroke:#FFFFFF;stroke-width:2;stroke-miterlimit:10;}
</style>
<g>
	<circle cx="213.2" cy="141.6" r="6.4"/>
	<path d="M32.7,101.9v79.4c0,7.8,6.4,14.2,14.2,14.2H217c7.8,0,14.2-6.4,14.2-14.2v-79.1c0-7.8-6.4-14.2-14.2-14.2H46.9
		C39.1,87.8,32.7,94.1,32.7,101.9z M217,92.5c5.2,0,9.4,4.3,9.4,9.4v79.4c0,5.2-4.3,9.4-9.4,9.4H46.9c-5.2,0-9.4-4.3-9.4-9.4v-79.1
		c0-5.2,4.3-9.4,9.4-9.4H217V92.5z"/>
	<path d="M52.8,152.5v-21.7c0-1.4-0.9-2.4-2.4-2.4s-2.4,0.9-2.4,2.4v21.7c0,1.4,0.9,2.4,2.4,2.4S52.8,153.9,52.8,152.5z"/>
	<path d="M108.1,107.1l41.3,71.3c0.7,1.2,2.1,1.4,3.3,0.9c0.7-0.5,1.2-1.2,1.2-2.1c0-0.5,0-0.7-0.2-1.2l-41.3-71.3
		c-0.7-1.2-2.1-1.4-3.3-0.9C107.9,104.5,107.4,105.9,108.1,107.1z"/>
	<path d="M129.8,124.1l21.5,37.3c0.7,1.2,2.1,1.4,3.3,0.9c0.7-0.5,1.2-1.2,1.2-2.1c0-0.5,0-0.7-0.2-1.2l-21.5-37.3
		c-0.7-1.2-2.1-1.4-3.3-0.9C129.6,121.5,129.1,123,129.8,124.1z"/>
	<path d="M132.2,160.3c0-0.5,0-0.7-0.2-1.2l-21.5-37.3c-0.7-1.2-2.1-1.4-3.3-0.9c-1.2,0.7-1.4,2.1-0.9,3.3l21.5,37.3
		c0.7,1.2,2.1,1.4,3.3,0.9C131.7,161.9,132.2,161,132.2,160.3z"/>
</g>
</svg>
