<?xml version="1.0" encoding="utf-8"?>
<!-- Generator: Adobe Illustrator 19.1.0, SVG Export Plug-In . SVG Version: 6.00 Build 0)  -->
<svg version="1.1" id="Layer_1" xmlns="http://www.w3.org/2000/svg" xmlns:xlink="http://www.w3.org/1999/xlink" x="0px" y="0px"
	 viewBox="0 0 283.5 283.5" style="enable-background:new 0 0 283.5 283.5;" xml:space="preserve">
<style type="text/css">
	.st0{stroke:#FFFFFF;stroke-width:2;stroke-miterlimit:10;}
</style>
<g>
	<path d="M196,234.1c10.1-24.9,7.8-77.9,7.2-83.1c0-0.1,0-0.1,0-0.2v-0.6c-2.8-9.2-8.5-14.4-15.8-14.4c-2,0-4.2,0.4-6.3,1.2
		c-0.4,0.1-0.8,0.1-1.2-0.1c-0.4-0.2-0.7-0.5-0.8-0.9c-1.9-6.2-7.9-10.5-14.5-10.5c-2.8,0-5,0.8-7,1.7c-0.7,0.3-1.6,0-1.9-0.7
		c-2.7-5.2-7.8-8.4-13.6-8.4c-2.1,0-3.7,0.3-5.2,0.9c-0.5,0.2-1,0.2-1.4-0.1c-0.4-0.3-0.7-0.7-0.7-1.3V97.5c0-8.3-7-15.3-15.3-15.3
		s-15.3,7-15.3,15.3v70.4c0,0.7-0.5,1.3-1.1,1.4c-0.7,0.2-1.3-0.1-1.7-0.7l-6-10.5c-2.1-3.8-5.2-6.2-9.3-7.4
		c-3.7-0.9-7.7-0.2-11.1,1.9c-5.6,3.5-7.3,11.6-4.4,20.7c0.1,0.2,0.3,0.7,0.5,1.3c11.3,30.2,23.5,52.7,34.5,63.6
		c0.8,0.8,1.7,1.1,2.9,1.1c0.9,0,2.1-0.3,2.9-1.1c0.7-0.7,1.1-1.8,1.1-2.9s-0.4-2.1-1.1-2.9c-10-10-21.6-31.5-32.6-60.5
		c-0.3-0.7-0.4-1.1-0.5-1.3c0-0.1,0-0.1-0.1-0.2c-1.3-4.3-1.4-9.6,1.1-11.4c1.4-1.1,3.2-1.3,4.9-0.7c1.8,0.4,3.4,1.8,4.3,3.7
		l16.4,28.5c1,1.6,2.7,2.3,4.7,1.9c1.6-0.4,3-2.1,3-3.8V98c0-4,3.3-7.3,7.3-7.3c4,0,7.3,3.3,7.3,7.3v63.1c0,2.3,1.7,4,4,4s4-1.7,4-4
		v-27.5c0,0,0-0.1,0-0.1c0.3-3.6,3.6-6.6,7.3-6.6c4,0,7.3,3.3,7.3,7.3v28.5c0,2.3,1.7,4,4,4c2.3,0,4-1.7,4-4v-21.5
		c0-4,3.3-7.3,7.3-7.3c4,0,7.3,3.3,7.3,7.3v21.2c0,2.3,1.7,4,4,4c2.3,0,4-1.7,4-4v-11c0-4,3.3-7.3,7.3-7.3c4.6,0,6.5,5,7.4,7.4
		l0.1,0.2c0.1,0.1,0.1,0.3,0.1,0.5l0,0.4c0.8,16.8,1.8,58.1-6.7,78.6c-0.8,2.1,0.2,4.3,2.3,5.1c0.1,0,0.3,0.1,0.5,0.2
		c0.5,0.2,0.8,0.3,1.1,0.3C194,236.6,195.5,235.6,196,234.1z"/>
	<path d="M91.9,111.2c0.3,0,0.9,0,1.2-0.1c0,0,0.1-0.1,0.2-0.1c2-0.7,3-3,2.2-5.1c-1.1-3-1.7-6.1-1.7-9.2
		c0-14.1,11.5-25.6,25.6-25.6c14.1,0,25.6,11.5,25.6,25.6c0,2.5-0.5,4.9-1.1,7.2c0,0,0,0,0,0c-0.3,1.1-0.1,2.2,0.4,3.2
		c0.4,0.6,1.1,1.5,2.4,1.8c2.2,0.6,4.4-0.6,5-2.6c0.8-3.3,1.3-6.5,1.3-9.6c0-18.5-15.1-33.6-33.6-33.6c-18.5,0-33.6,15.1-33.6,33.6
		c0,4.1,0.8,8,2.2,11.7C88.8,110.1,90.3,111.2,91.9,111.2z"/>
	<path d="M119.4,44C90.5,44,67,67.5,67,96.4c0,8.4,2,16.4,5.9,23.9c0.7,1.3,2.1,2.1,3.6,2.1c0.5,0,1.2-0.2,2-0.4
		c1.8-1,2.5-3.4,1.6-5.3c-3.2-6.1-4.9-13.1-4.9-20.3c0-24.5,19.9-44.4,44.4-44.4c24.5,0,44.4,19.9,44.4,44.4c0,3.4-0.4,7.1-1.3,11.3
		c0,0.1,0,0.1,0,0.2c-0.4,1.2-0.3,2.5,0.3,3.5c0.3,0.5,0.9,1.2,2,1.4c0,0,0.1,0,0.1,0c2.1,0.6,4.4-0.8,5-2.9c1.2-4,1.8-8.6,1.8-13.5
		C171.8,67.5,148.3,44,119.4,44z"/>
</g>
</svg>
