<?xml version="1.0" encoding="utf-8"?>
<!-- Generator: Adobe Illustrator 19.1.0, SVG Export Plug-In . SVG Version: 6.00 Build 0)  -->
<svg version="1.1" id="Layer_1" xmlns="http://www.w3.org/2000/svg" xmlns:xlink="http://www.w3.org/1999/xlink" x="0px" y="0px"
	 viewBox="0 0 283.5 283.5" style="enable-background:new 0 0 283.5 283.5;" xml:space="preserve">
<style type="text/css">
	.st0{stroke:#FFFFFF;stroke-width:2;stroke-miterlimit:10;}
</style>
<path d="M238.9,124.2c0-10.6-5.6-20.5-15.1-26.4c-0.4-0.3-0.8-0.7-0.9-1.2c-5.1-20.9-24.7-35.5-47.6-35.5c-5.5,0-10.9,0.9-16.1,2.6
	c-0.7,0.2-1.5,0.1-2-0.4c-6.3-6-14.8-9.3-23.8-9.3c-10.4,0-20.3,4.6-26.7,12.4c-0.4,0.5-1.1,0.8-1.8,0.7c-1.4-0.2-2.8-0.3-4.2-0.3
	c-15.1,0-28.4,9.5-32.4,23c-0.2,0.6-0.7,1.1-1.3,1.3c-13.5,4.4-22.5,16.4-22.5,29.9c0,4,0.8,8.1,2.4,11.8c0.2,0.5,0.2,1.1,0,1.6
	c-1.6,3.7-2.4,7.8-2.4,11.8c0,11.7,6.8,22.3,17.7,27.9c0.2,0.1,0.3,0.2,0.5,0.3c6.3,5.9,15,9.3,23.9,9.3c5.7,0,11.1-1.3,16.1-3.8
	c0.8-0.4,1.8-0.2,2.4,0.4c6.4,7.1,15.8,11.1,25.6,11.1c6.2,0,12-1.5,17.2-4.4c0.3-0.2,0.6-0.3,1-0.3c0.4,0,0.8,0.1,1.2,0.4
	c5.8,4.3,12.7,7,20,7.9c0.4,0.1,0.9,0.3,1.2,0.6c13.1,13.2,23.1,30.1,23.2,30.2l2.1,3.6l13.3-9.5l-8.6-24.6c-0.3-1,0.1-2,1-2.5
	c4.7-2.2,8.7-5.8,11.1-10.3c0.2-0.3,0.5-0.6,0.8-0.8c10.6-5.6,17.2-16.2,17.2-27.6c0-2.5-0.3-5.1-1-7.5c-0.2-0.7,0-1.3,0.5-1.8
	C236.1,139,238.9,131.8,238.9,124.2z M227.3,136.9c-0.3,0.5-0.9,0.8-1.5,0.9c-0.6,0.1-1.2-0.2-1.6-0.6l-9.4-9.4
	c-3.6-3.6-7.2-11.3-7.8-16.8l-1-9.4l-7.3,0.8l1,9.4c0.3,2.9,1.3,6.4,2.8,10c0.3,0.7,0.2,1.4-0.2,2s-1.1,0.9-1.8,0.8l-0.3,0
	c-0.6-0.1-1.2-0.2-1.8-0.2l-23.5-1.1l-0.3,7.3l23.5,1.1c5.7,0.3,13.8,3.6,17.3,7.1l6,6c0.2,0.2,0.3,0.4,0.4,0.7l0.2,0.5
	c1.1,2.6,1.6,5.4,1.6,8.2c0,9.2-5.6,17.4-14.5,21.5l-1.3,0.6l-0.6,1.3c-2.1,4.9-6.8,8.5-12.4,9.5l-4.4,0.9l7.9,22.6
	c0.3,0.9-0.1,2-1,2.4c-0.3,0.1-0.6,0.2-0.9,0.2c-0.6,0-1.3-0.3-1.6-0.9c-4.5-6.5-11.6-15.9-19.8-23.8l-1-1l-1.4-0.1
	c-5.2-0.4-10.4-2-15-4.6c-0.6-0.3-1-0.9-1-1.6c0-0.7,0.2-1.3,0.8-1.7l16.9-13.3c4.6-3.7,11.3-5.6,14.1-4.8l5.8,1.5l1.9-7.1l-5.8-1.5
	c-5.9-1.6-15.1,1.9-20.5,6.1l-18.9,15c-0.1,0.1-0.3,0.2-0.5,0.3l-3.5,2.6c-4.7,3.5-10.1,5.3-16,5.3c-8.6,0-16.5-3.9-21.2-10.5
	c-0.2-0.3-0.4-0.7-0.4-1.2v-17c0-5,2.3-10.1,4.3-11.3l4.6-2.9l-4.1-6.6l-4.8,2.9c-2.4,1.5-4.6,4.2-6.1,7.8c-0.3,0.6-0.8,1-1.4,1.2
	c-0.6,0.1-1.3,0-1.8-0.5c-1.2-1.1-2.6-2.1-3.9-3l-17.3-10.5l-4,6.6l17,10.5c5.2,3.1,8.6,9.7,8.6,14v7.5c0,0.8-0.4,1.4-1.1,1.8
	c-4.2,2.1-8,3.5-13.2,3.5c-7.1,0-14-2.8-19-7.7l-0.5-0.5l-0.5-0.3c-8.7-4.1-14.1-12.3-14.1-21.3c0-3.8,0.9-7.4,2.8-10.7l1-1.8
	l-1-1.8c-1.8-3.4-2.8-7-2.8-10.7c0-11.1,8.2-20.7,19.9-23.3l2.5-0.6l0.4-2.5c2-11.7,12.8-20.1,25.6-20.1c2.1,0,4.2,0.2,6.2,0.7
	l2.6,0.6l1.5-2.3c4.7-7.3,13.2-11.8,22.4-11.8c5.9,0,11.4,1.8,16,5.1c0.5,0.4,0.8,0.9,0.8,1.5c0,0.6-0.2,1.2-0.6,1.6l-4.4,4.1
	c-0.2,0.2-0.4,0.3-0.6,0.4l-2.6,2.4c0,0-0.1,0.1-0.1,0.1c-4.1,3.1-9.7,5.3-12.6,4.9l-6.3-1l-1.1,7.6l6.3,1c0.1,0,0.2,0,0.3,0
	c0.1,0,0.3,0,0.4,0c0.6,0.1,1.2,0.4,1.5,0.9c0.3,0.5,0.4,1.1,0.2,1.7c-1.3,4-1.7,8.2-1.1,11.7l1.6,9.2l7.6-1.3l-1.6-9.2
	c-0.8-4.8,1.5-12,5.1-15.3l4.8-4.5c0,0,0.1-0.1,0.1-0.1c0.7-0.5,1.2-1,1.7-1.5l9.2-8.6c0.2-0.2,0.4-0.3,0.6-0.4
	c5.3-2.1,10.8-3.2,16.5-3.2c20.2,0,37.2,13.4,40.5,31.7l0.3,1.9l1.7,0.9c8.2,4.3,13.3,12.3,13.3,20.9
	C231.2,128.7,229.9,133.1,227.3,136.9z"/>
</svg>
