<?xml version="1.0" encoding="utf-8"?>
<!-- Generator: Adobe Illustrator 19.1.0, SVG Export Plug-In . SVG Version: 6.00 Build 0)  -->
<svg version="1.1" id="Layer_1" xmlns="http://www.w3.org/2000/svg" xmlns:xlink="http://www.w3.org/1999/xlink" x="0px" y="0px"
	 viewBox="0 0 283.5 283.5" style="enable-background:new 0 0 283.5 283.5;" xml:space="preserve">
<style type="text/css">
	.st0{stroke:#FFFFFF;stroke-width:2;stroke-miterlimit:10;}
</style>
<g>
	<path d="M195.6,89.8c-0.8-1.2-2.4-1.6-3.6-0.8c-0.2,0.2-0.5,0.4-0.7,0.6c0,0-0.1,0.1-0.1,0.1L179.5,106c-3.1,4.3-4.2,5.3-9.5,1.5
		c-1.8-1.3-4-3.3-4-4.9c0-1.2,1.1-2.8,2.4-4.6l11.9-16.3c0,0,0,0,0-0.1c0.2-0.3,0.3-0.5,0.4-0.8c0.4-1.4-0.5-2.8-1.9-3.2
		c-2.4-0.6-4.8-0.9-7.3-0.9c-9.1,0-17.9,4.3-23.3,11.8c-6.5,8.9-7.2,20.9-2,30.6c0.1,0.2,0.1,0.4,0,0.5l-50.2,66.9
		c-1.9,2.6-2.4,6-1.5,9.6c0.8,3.2,2.7,6.2,5.3,8c2.8,2.1,6.9,3,10.5,2.4c2.2-0.3,5.2-1.4,7.4-4.3l47.9-68.4c0.1-0.2,0.3-0.2,0.5-0.2
		c10.9,2.1,22.1-2.4,28.6-11.3C201.7,112.8,202,99.7,195.6,89.8z M190.5,119.2c-5.7,7.8-15.8,11.4-25.1,8.9c-1.1-0.3-2.2,0.1-2.8,1
		l-49.1,70.1c-1.2,1.6-3.2,2.3-5.3,2.3c-1.9,0-3.9-0.6-5.3-1.6c-1.6-1.1-2.8-3-3.3-5.1c-0.5-2-0.3-3.9,0.7-5.2l51.4-68.5
		c0.7-0.9,0.7-2.1,0.1-3c-5.2-8.1-4.9-18.8,0.7-26.6c4.6-6.3,12.3-10,20.2-9.6c0.2,0,0.3,0.1,0.4,0.3c0.1,0.2,0.1,0.4,0,0.5
		L164.3,95c-1.7,2.3-3.4,4.6-3.4,7.5c-0.1,4.2,3.4,7.3,6.1,9.2c3.6,2.6,6.7,3.7,9.4,3.3c3.5-0.6,5.6-3.5,7.4-5.9l8.9-12.2
		c0.1-0.1,0.3-0.2,0.5-0.2c0.2,0,0.3,0.1,0.4,0.3C196.2,104.4,195.1,112.9,190.5,119.2z"/>
	<path d="M37.1,146.4l56.3,22.4v-7.9l-46.5-17.8c-0.2-0.1-0.3-0.3-0.3-0.5c0-0.2,0.1-0.4,0.3-0.5l46.5-17.8v-7.9l-56.3,22.4V146.4z"
		/>
	<path d="M262.8,138.8l-56.3-22.4v7.9l46.5,17.8c0.2,0.1,0.3,0.3,0.3,0.5c0,0.2-0.1,0.4-0.3,0.5l-46.5,17.8v7.9l56.3-22.3V138.8z"/>
</g>
</svg>
