<?xml version="1.0" encoding="utf-8"?>
<!-- Generator: Adobe Illustrator 19.1.0, SVG Export Plug-In . SVG Version: 6.00 Build 0)  -->
<svg version="1.1" id="Layer_1" xmlns="http://www.w3.org/2000/svg" xmlns:xlink="http://www.w3.org/1999/xlink" x="0px" y="0px"
	 viewBox="0 0 283.5 283.5" style="enable-background:new 0 0 283.5 283.5;" xml:space="preserve">
<style type="text/css">
	.st0{fill:none;stroke:#060606;stroke-width:6;stroke-miterlimit:10;}
	.st1{fill:none;stroke:#000000;stroke-width:5;}
</style>
<g>
	<path d="M194.6,85.1c-0.9-1.3-2.6-1.7-3.9-0.8c-0.3,0.2-0.5,0.4-0.7,0.7c0,0-0.1,0.1-0.1,0.1L177,102.8c-3.4,4.6-4.6,5.8-10.3,1.6
		c-2-1.4-4.4-3.5-4.3-5.3c0-1.4,1.2-3,2.7-5l12.9-17.8c0,0,0-0.1,0.1-0.1c0.2-0.3,0.3-0.6,0.4-0.8c0.4-1.5-0.5-3.1-2-3.5
		c-2.6-0.7-5.3-1-7.9-1c-9.9,0-19.5,4.7-25.4,12.9c-7.1,9.7-7.9,22.8-2.2,33.4c0.1,0.2,0.1,0.4,0,0.6L86,190.6
		c-2,2.8-2.6,6.6-1.7,10.4c0.9,3.5,3,6.7,5.8,8.7c3.1,2.2,7.5,3.2,11.5,2.6c2.4-0.4,5.7-1.5,8-4.7l52.2-74.6
		c0.1-0.2,0.3-0.3,0.5-0.2c11.9,2.2,24.1-2.6,31.2-12.4C201.2,110.1,201.6,95.9,194.6,85.1z M189,117.2c-6.2,8.5-17.2,12.4-27.4,9.7
		c-1.2-0.3-2.4,0.1-3.1,1.1L105,204.4c-1.3,1.7-3.5,2.5-5.8,2.5c-2.1,0-4.2-0.6-5.7-1.7c-1.7-1.2-3-3.3-3.6-5.5
		c-0.6-2.2-0.3-4.2,0.7-5.6l56.1-74.7c0.7-1,0.8-2.3,0.1-3.3c-5.7-8.8-5.4-20.5,0.8-29c5-6.9,13.4-10.9,22-10.5
		c0.2,0,0.4,0.1,0.5,0.3c0.1,0.2,0.1,0.4-0.1,0.6l-9.7,13.3c-1.8,2.5-3.7,5.1-3.8,8.2c-0.1,4.6,3.7,8,6.7,10.1
		c3.9,2.8,7.3,4,10.2,3.6c3.8-0.6,6.2-3.8,8.1-6.5l9.7-13.3c0.1-0.2,0.3-0.2,0.5-0.2c0.2,0,0.4,0.2,0.4,0.3
		C195.2,101,194,110.3,189,117.2z"/>
	<path class="st0" d="M61.9,189.9c-1.6,0-3.1-0.6-4.3-1.8l-42.1-42.1c-2.4-2.4-2.4-6.3,0-8.7l42.2-42.2c2.4-2.4,6.3-2.4,8.7,0
		c2.4,2.4,2.4,6.3,0,8.7l-37.9,37.9l37.7,37.7c2.4,2.4,2.4,6.3,0,8.7C65,189.3,63.4,189.9,61.9,189.9z"/>
	<path class="st0" d="M221.4,190.1c-1.6,0-3.1-0.6-4.3-1.8c-2.4-2.4-2.4-6.3,0-8.7l37.9-37.9l-37.9-37.9c-2.4-2.4-2.4-6.3,0-8.7
		c2.4-2.4,6.3-2.4,8.7,0l42.2,42.2c1.1,1.1,1.8,2.7,1.8,4.3s-0.6,3.2-1.8,4.3l-42.2,42.2C224.6,189.5,223,190.1,221.4,190.1z"/>
</g>
</svg>
