<?xml version="1.0" encoding="utf-8"?>
<!-- Generator: Adobe Illustrator 19.1.0, SVG Export Plug-In . SVG Version: 6.00 Build 0)  -->
<svg version="1.1" id="Layer_1" xmlns="http://www.w3.org/2000/svg" xmlns:xlink="http://www.w3.org/1999/xlink" x="0px" y="0px"
	 viewBox="0 0 283.5 283.5" style="enable-background:new 0 0 283.5 283.5;" xml:space="preserve">
<style type="text/css">
	.st0{stroke:#FFFFFF;stroke-width:2;stroke-miterlimit:10;}
</style>
<g>
	<path d="M231.5,83.9c-5.9,0-11.5,2.3-15.7,6.5c-0.4,0.4-0.7,1-0.9,1.6c-0.1,0.4-0.4,0.7-0.8,0.8c-0.6,0.1-1.2,0.4-1.6,0.9
		l-93.9,93.9c-0.3,0.3-0.6,0.7-0.8,1.2l-11.2,30.4c-2.2,6-0.2,9.2,1.1,10.6c1,1,2.7,2.1,5.6,2.1c0,0,0,0,0,0c1.5,0,3.2-0.3,5-1
		l30.3-11.2c0.5-0.2,0.9-0.4,1.3-0.8L244,125c0.4-0.4,0.7-1,0.9-1.6c0.1-0.4,0.4-0.7,0.8-0.8c0.6-0.1,1.2-0.4,1.6-0.9
		c4.2-4.2,6.5-9.8,6.5-15.7c0-5.9-2.3-11.5-6.5-15.7C243,86.2,237.5,83.9,231.5,83.9z M236.2,123.3l-87.8,87.8
		c-0.2,0.2-0.4,0.3-0.7,0.3s-0.5-0.1-0.7-0.3l-11.5-11.5c-1.3-1.3-3.4-1.3-4.7,0c-1.3,1.3-1.3,3.4,0,4.7l9.8,9.8
		c0.2,0.2,0.3,0.6,0.3,0.9c-0.1,0.3-0.3,0.6-0.6,0.7l-24.1,8.9c-1,0.4-1.9,0.6-2.7,0.6c0,0-0.1,0-0.1,0c-0.5,0-1-0.4-1-1
		c0-0.5,0.1-1.4,0.6-2.8c0,0,0,0,0-0.1l10.8-29.5c0.1-0.1,0.1-0.3,0.2-0.4l90.2-90.2c0.4-0.4,1-0.4,1.4,0l20.6,20.5
		c0.2,0.2,0.3,0.4,0.3,0.7S236.4,123.1,236.2,123.3z M242.5,117l-0.1,0.2c-0.2,0.2-0.4,0.3-0.7,0.4c0,0,0,0,0,0
		c-0.3,0-0.5-0.1-0.7-0.3l-20.6-20.6c-0.2-0.2-0.3-0.5-0.3-0.7c0-0.3,0.1-0.5,0.3-0.7c0,0,0.1-0.1,0.2-0.1c3-2.9,6.9-4.6,11-4.6
		c4.1,0,8.1,1.6,11,4.6c2.9,2.9,4.6,6.8,4.6,11C247.1,110.2,245.5,114.1,242.5,117z"/>
	<path d="M136.4,96.8c-2.2-12.4-10-23.6-21.9-31.5C101,56.4,82.4,51.6,60.6,51.6c-1.8,0-3.3,1.5-3.3,3.3s1.5,3.3,3.3,3.3
		c28.7,0,64.1,10.4,69.2,39.6c3.2,18-7.6,34.7-26.7,41.7c-23.5,8.5-38.3,24.4-39.6,42.6c-1.1,15.9,8.4,30.5,26.2,40
		c0.5,0.3,1,0.4,1.6,0.4c1.2,0,2.3-0.7,2.9-1.8c0.4-0.8,0.5-1.7,0.2-2.5c-0.3-0.8-0.8-1.5-1.6-2c0,0,0,0,0,0
		c-15.4-8.2-23.7-20.5-22.7-33.7c1.1-15.3,14.6-29.4,35.2-36.9C127.3,137.9,140,117.7,136.4,96.8z"/>
</g>
</svg>
