<?xml version="1.0" encoding="utf-8"?>
<!-- Generator: Adobe Illustrator 19.1.0, SVG Export Plug-In . SVG Version: 6.00 Build 0)  -->
<svg version="1.1" id="Layer_1" xmlns="http://www.w3.org/2000/svg" xmlns:xlink="http://www.w3.org/1999/xlink" x="0px" y="0px"
	 viewBox="0 0 283.5 283.5" style="enable-background:new 0 0 283.5 283.5;" xml:space="preserve">
<style type="text/css">
	.st0{stroke:#FFFFFF;stroke-width:2;stroke-miterlimit:10;}
</style>
<g>
	<path d="M68,148.3v62.1c0,16,12.7,29.5,27.8,29.5h90.5c15.5,0,29-13.8,29-29.5v-62.1c0-15.7-13.3-29-29-29H125c-0.6,0-1-0.4-1-1
		V88.1c0-9.4,7.8-17.6,16.6-17.6c8.8,0,16.6,8.2,16.6,17.6V96c0,1.9,1.6,3.5,3.5,3.5h20.1c1.9,0,3.5-1.6,3.5-3.5v-6.7
		c0-26.1-18.7-45.8-43.5-45.8C115.8,43.5,97,63.1,97,89.2c0,16.8,0,26,0,29.2c0,0.3-0.1,0.5-0.3,0.7c-0.2,0.2-0.4,0.3-0.7,0.3h-0.2
		C80.5,119.3,68,132.3,68,148.3z M103.9,89.2c0-22.5,15.5-38.9,36.8-38.9c21.2,0,36.6,16.4,36.6,39.1v2.2c0,0.6-0.4,1-1,1h-11.1
		c-0.6,0-1-0.4-1-1v-3.5c0-13.3-10.8-24.5-23.5-24.5c-12.8,0-23.5,11.2-23.5,24.5v30.2c0,0.6-0.4,1-1,1H105c-0.5,0-1-0.4-1-1
		C103.9,114.3,103.9,105.1,103.9,89.2z M96.4,126.2H187c11.8,0,21.5,9.6,21.5,21.5v61.6c0,11.8-9.6,21.5-21.5,21.5H96.4
		c-11.8,0-21.5-9.6-21.5-21.5v-61.6C75,135.9,84.6,126.2,96.4,126.2z"/>
	<path d="M156.3,197.4l-4.3-16c-0.1-0.4,0-0.7,0.3-1c3.4-3.2,5.2-7.5,5.2-12.1c0-4.8-2.1-9.5-5.7-12.7c-3.1-2.8-7-4.2-11.1-4.2
		c-0.7,0-1.5,0-2.2,0.1c0,0,0,0,0,0c-7.8,1-13.9,7.3-14.7,15.1c-0.5,5.2,1.4,10.2,5.2,13.8c0.3,0.3,0.4,0.6,0.3,1l-4.3,16.1
		c-0.6,2.3-0.2,4.3,1.3,6.3c1.3,1.7,3.4,2.6,6.1,2.6h16.7c2.7,0,4.7-0.9,6.1-2.6C156.5,202,156.9,199.7,156.3,197.4z M149.5,198.3
		c0.1,0.3,0,0.6-0.2,0.9c-0.2,0.2-0.5,0.4-0.8,0.4h-16c-0.3,0-0.6-0.1-0.8-0.4c-0.2-0.2-0.3-0.6-0.2-0.9l5.7-20.6l-2.1-1.2
		c-3.2-2.1-4.9-5.5-4.6-9.2c0.4-4.5,4.1-8.3,8.6-8.9c2.9-0.4,5.8,0.5,7.9,2.4c2.2,1.9,3.4,4.6,3.4,7.5c0,3.4-1.7,6.4-4.6,8.3
		c0,0-0.1,0-0.1,0.1l-2,1L149.5,198.3z"/>
</g>
</svg>
