<?xml version="1.0" encoding="utf-8"?>
<!-- Generator: Adobe Illustrator 19.1.0, SVG Export Plug-In . SVG Version: 6.00 Build 0)  -->
<svg version="1.1" id="Layer_1" xmlns="http://www.w3.org/2000/svg" xmlns:xlink="http://www.w3.org/1999/xlink" x="0px" y="0px"
	 viewBox="0 0 283.5 283.5" style="enable-background:new 0 0 283.5 283.5;" xml:space="preserve">
<style type="text/css">
	.st0{stroke:#FFFFFF;stroke-width:2;stroke-miterlimit:10;}
</style>
<g>
	<path d="M82.1,170.2c-14.9,0-27-12.1-27-27s12.1-27,27-27s27,12.1,27,27C109.1,157.8,96.7,170.2,82.1,170.2z M82.1,122.2
		c-11.6,0-21,9.4-21,21s9.4,21,21,21c11.4,0,21-9.6,21-21C103.1,131.6,93.6,122.2,82.1,122.2z M82.1,156.3
		c-7.1,0-12.7-5.6-12.7-12.7s5.6-12.7,12.7-12.7s12.7,5.6,12.7,12.7C94.7,150.4,88.8,156.3,82.1,156.3z M82.1,136.9
		c-3.8,0-6.7,2.9-6.7,6.7s2.9,6.7,6.7,6.7c3.4,0,6.7-3.3,6.7-6.7C88.7,139.8,85.9,136.9,82.1,136.9z"/>
	<path d="M117.8,136.9c-0.2,0-0.4,0-0.6-0.1c-1.4-0.2-2.5-1.1-3.2-2.5l-0.1-0.3l-0.1-0.3c-3.1-11.1-12.3-19.9-23.7-22.7
		c-1.5-0.1-2.8-1-3.4-2.4c-0.6-1.5-0.3-3.3,0.8-4.4l27-27l-2.9-2.9c-1.6-1.6-1.6-4.3,0-5.9l8.4-8.4c1.4-1.4,3.3-1.6,4.8-0.6l2.6-6
		c0.8-2.1,2.7-4,4.8-4.7l25.2-8.8c2.2-0.9,4.9-0.7,7.1,0.6c2.3,1.3,3.8,3.5,4.1,6c0.6,3.9-1.9,7.9-5.8,9.2l-21.2,7.3l-4.2,8.7
		l14.4,14.4l8.7-3.8l7.8-21.7c1.3-3.9,5.2-6.4,9.2-5.7c2.5,0.3,4.7,1.8,6,4.1c1.3,2.2,1.5,4.9,0.6,7.1l-8.8,25.2
		c-0.7,2.1-2.6,4-4.7,4.8l-6,2.6c1,1.5,0.8,3.4-0.6,4.8l-8.4,8.4c-1.6,1.6-4.3,1.6-5.9,0l-2.5-2.5l-26.1,26.1
		C120,136.5,118.9,136.9,117.8,136.9z M94.3,106.1c11.2,3.6,20.3,12.4,24.3,23.2L144,104c1.6-1.6,4.3-1.6,5.9,0l2.5,2.5l5.7-5.7
		l-0.2-0.2c-1.2-1.2-1.2-2.5-1.1-3.2c0.1-0.9,0.7-2,2.3-2.9l0.2-0.1l9.1-3.9c0.4-0.1,0.9-0.7,1.1-1.1l8.9-25.5
		c0.2-0.5,0.2-1.2-0.2-1.8c-0.2-0.3-0.7-1-1.6-1.2l-0.1,0c-1-0.2-2.2,0.6-2.6,1.8l-7.9,22.1c-0.2,0.8-0.6,1.6-1.7,2.3c0,0,0,0,0,0
		l-0.3,0.3l-11.6,5.1h-0.6c-0.6,0-2.1,0-3.4-1.3l-16-16c-1.3-1.3-1.3-2.8-1.3-3.4v-0.7l5.2-10.8c0.2-0.7,0.7-1.5,1.7-2.1
		c0,0,0,0,0,0l0.4-0.4l22.6-7.8c1.2-0.4,2-1.5,1.8-2.6l0-0.1c-0.1-0.9-0.9-1.4-1.2-1.6c-0.6-0.4-1.3-0.4-1.8-0.2l-0.2,0.1L134,54.6
		c-0.4,0.1-1,0.7-1.1,1.1l-0.1,0.2l-4,9.4l-0.4,0.4c-1.3,1.3-2.8,1.3-3.4,1.3h-1.2l-1.1-1.1l-5.7,5.7l2.9,2.9c1.6,1.6,1.6,4.3,0,5.9
		L94.3,106.1z"/>
	<path d="M206.8,243.9H103.5c-2.1,0-3.8-1.8-3.8-3.8v-26.5c0-2.1,1.8-3.8,3.8-3.8h8.3l-27.3-26.9c-1.1-1.1-1.4-2.7-0.8-4.1
		c0.5-1.3,1.7-2.2,3-2.3c12.2-1.6,22.6-10.2,26.5-22l0.2-0.4c0.8-1.7,2-2.2,2.9-2.3c0.7-0.1,2-0.1,3.2,1.1l57.7,56.4h29.5
		c2.1,0,3.8,1.8,3.8,3.8v27C210.6,242.2,208.9,243.9,206.8,243.9z M105.7,237.9h98.9v-22.7h-29.8l-57-55.8
		c-4.8,11-14.5,19.2-25.9,22l28.1,27.7c1.1,1.1,1.4,2.7,0.8,4.1c-0.6,1.4-1.9,2.3-3.3,2.3h-11.7V237.9z"/>
</g>
</svg>
